<svg width="150" height="36" viewBox="0 0 150 36" fill="none" xmlns="http://www.w3.org/2000/svg">
<path fill-rule="evenodd" clip-rule="evenodd" d="M142.682 17.9999C142.682 12.0105 137.883 7.25641 132.088 7.25641C126.293 7.25641 121.494 12.0105 121.494 17.9999C121.494 23.9893 126.293 28.7434 132.088 28.7434C137.883 28.7434 142.682 23.9893 142.682 17.9999ZM149.682 17.9999C149.682 8.20044 141.805 0.256409 132.088 0.256409C127.975 0.256409 124.192 1.67957 121.196 4.06423V0.256436L114.196 0.256436V35.7434H121.196V31.9356C124.192 34.3202 127.975 35.7434 132.088 35.7434C141.805 35.7434 149.682 27.7994 149.682 17.9999Z" fill="#312964"/>
<path fill-rule="evenodd" clip-rule="evenodd" d="M107.075 18C107.075 12.0106 102.276 7.25653 96.4808 7.25653C90.6856 7.25653 85.8868 12.0106 85.8868 18C85.8868 23.9895 90.6856 28.7435 96.4808 28.7435C102.276 28.7435 107.075 23.9895 107.075 18ZM114.075 18C114.075 8.20056 106.198 0.256531 96.4808 0.256531C92.3682 0.256531 88.5852 1.67954 85.5895 4.06396V0.256588L78.5895 0.256588V35.7436H85.5895V31.9361C88.5852 34.3205 92.3682 35.7435 96.4808 35.7435C106.198 35.7435 114.075 27.7995 114.075 18Z" fill="#312964"/>
<path fill-rule="evenodd" clip-rule="evenodd" d="M71.4678 17.9999C71.4678 12.0105 66.669 7.25641 60.8738 7.25641C55.0787 7.25641 50.2799 12.0105 50.2799 17.9999C50.2799 23.9893 55.0787 28.7434 60.8738 28.7434C66.669 28.7434 71.4678 23.9893 71.4678 17.9999ZM78.4678 17.9999C78.4678 8.20044 70.5907 0.256409 60.8738 0.256409C51.157 0.256409 43.2799 8.20044 43.2799 17.9999C43.2799 27.7994 51.157 35.7434 60.8738 35.7434C70.5907 35.7434 78.4678 27.7994 78.4678 17.9999ZM42.8609 35.7434V0.256474L35.8609 0.256474V35.7434H42.8609Z" fill="#312964"/>
<path fill-rule="evenodd" clip-rule="evenodd" d="M28.7393 18.0001C28.7393 12.0106 23.9404 7.25659 18.1453 7.25659C12.3502 7.25659 7.55138 12.0106 7.55138 18.0001C7.55138 23.9895 12.3502 28.7436 18.1453 28.7436C23.9404 28.7436 28.7393 23.9895 28.7393 18.0001ZM35.7393 18.0001C35.7393 8.20062 27.8622 0.256592 18.1453 0.256592C14.0327 0.256592 10.2496 1.67968 7.25385 4.06422V0.25663L0.253845 0.25663V35.7436H7.25385V31.9359C10.2496 34.3205 14.0327 35.7436 18.1453 35.7436C27.8622 35.7436 35.7393 27.7995 35.7393 18.0001Z" fill="#312964"/>
</svg>
