<svg width="150" height="37" viewBox="0 0 150 37" fill="none" xmlns="http://www.w3.org/2000/svg">
<path fill-rule="evenodd" clip-rule="evenodd" d="M71.4678 18.3974C71.4678 12.408 66.669 7.65392 60.8738 7.65392C55.0787 7.65392 50.2799 12.408 50.2799 18.3974C50.2799 24.3868 55.0787 29.1409 60.8738 29.1409C66.669 29.1409 71.4678 24.3868 71.4678 18.3974ZM78.4678 18.3974C78.4678 8.59794 70.5907 0.653915 60.8738 0.653915C51.157 0.653915 43.2799 8.59794 43.2799 18.3974C43.2799 28.1969 51.157 36.1409 60.8738 36.1409C70.5907 36.1409 78.4678 28.1969 78.4678 18.3974ZM42.9834 0.654121L35.9731 0.654121V36.1409H42.9834V0.654121Z" fill="#CD82F0"/>
<rect x="0.55127" y="0.654121" width="7.01025" height="35.4869" fill="url(#paint0_linear_887_184)"/>
<rect x="0.55127" y="0.654083" width="7.01025" height="17.7435" fill="#CD82F0"/>
<path d="M32.2392 18.3976C32.2392 10.5031 25.9012 4.1541 18.1452 4.1541C10.3892 4.1541 4.05127 10.5031 4.05127 18.3976C4.05127 26.292 10.3892 32.6411 18.1452 32.6411C25.9012 32.6411 32.2392 26.292 32.2392 18.3976Z" stroke="#CD82F0" stroke-width="7"/>
<rect x="78.7388" y="0.654152" width="7.01025" height="35.4869" fill="url(#paint1_linear_887_184)"/>
<path d="M110.426 18.3974C110.426 10.503 104.088 4.15394 96.3322 4.15394C88.5762 4.15394 82.2383 10.503 82.2383 18.3974C82.2383 26.2919 88.5762 32.6409 96.3322 32.6409C104.088 32.6409 110.426 26.2919 110.426 18.3974Z" stroke="#CD82F0" stroke-width="7"/>
<rect x="78.7388" y="0.654152" width="7.01025" height="17.7435" fill="#CD82F0"/>
<rect x="114.345" y="0.654152" width="7.01025" height="35.4869" fill="url(#paint2_linear_887_184)"/>
<path d="M146.033 18.3976C146.033 10.5031 139.695 4.15406 131.939 4.15406C124.183 4.15406 117.845 10.5031 117.845 18.3976C117.845 26.292 124.183 32.641 131.939 32.641C139.695 32.641 146.033 26.292 146.033 18.3976Z" stroke="#CD82F0" stroke-width="7"/>
<rect x="114.345" y="0.654114" width="7.01025" height="17.7435" fill="#CD82F0"/>
<defs>
<linearGradient id="paint0_linear_887_184" x1="8.22808" y1="26.7256" x2="0.551271" y2="36.1411" gradientUnits="userSpaceOnUse">
<stop stop-color="#312964"/>
<stop offset="1" stop-color="#CD82F0"/>
</linearGradient>
<linearGradient id="paint1_linear_887_184" x1="86.4156" y1="26.7257" x2="78.7388" y2="36.1411" gradientUnits="userSpaceOnUse">
<stop stop-color="#312964"/>
<stop offset="1" stop-color="#CD82F0"/>
</linearGradient>
<linearGradient id="paint2_linear_887_184" x1="122.022" y1="26.7257" x2="114.345" y2="36.1411" gradientUnits="userSpaceOnUse">
<stop stop-color="#312964"/>
<stop offset="1" stop-color="#CD82F0"/>
</linearGradient>
</defs>
</svg>
