<svg width="1712" height="223" viewBox="0 0 1712 223" fill="none" xmlns="http://www.w3.org/2000/svg">
<g clip-path="url(#clip0_951_34698)">
<g filter="url(#filter0_d_951_34698)">
<path d="M0.502263 117.253C11.3898 105.984 22.9421 105.255 35.1592 115.067C46.9894 124.268 58.5417 123.539 69.8161 112.881C80.7436 102.245 92.2959 101.517 104.473 110.696C111.11 111.615 122.663 110.887 139.13 108.51C150.598 106.448 162.151 105.72 173.787 106.324C208.669 110.77 220.221 110.042 208.444 104.138C219.579 96.79 231.131 96.0614 243.101 101.953C250.28 103.005 261.832 102.277 277.758 99.7667C289.215 97.5387 300.768 96.8101 312.415 97.581C348.849 103.145 360.401 102.416 347.072 95.3952C358.13 86.8362 369.682 86.1076 381.729 93.2094C389.995 95.8103 401.547 95.0817 416.385 91.0236C427.742 87.1851 439.294 86.4565 451.042 88.8378C463.303 91.4545 474.855 90.7259 485.699 86.652C497.039 82.5469 508.591 81.8183 520.356 84.4662C530.092 86.0936 541.645 85.365 555.013 82.2804C566.425 79.3194 577.977 78.5908 589.67 80.0947C621.97 88.1047 633.522 87.3761 624.327 77.9089C635.248 67.1729 646.801 66.4443 658.984 75.7231C668.394 80.8278 679.946 80.0992 693.641 73.5373C704.835 67.1331 716.388 66.4045 728.298 71.3515C738.78 75.0617 750.332 74.3331 762.955 69.1657C774.233 64.0832 785.785 63.3546 797.612 66.9799C805.703 68.1423 817.256 67.4137 832.269 64.7941C843.716 62.3995 855.268 61.6709 866.926 62.6084C905.637 69.5338 917.189 68.8052 901.583 60.4226C912.546 50.3642 924.099 49.6356 936.239 58.2368C945.592 62.9103 957.144 62.1817 970.896 56.051C982.118 50.0799 993.67 49.3513 1005.55 53.8652C1014.21 55.8056 1025.77 55.0771 1040.21 51.6794C1051.61 48.474 1063.16 47.7454 1074.87 49.4936C1096.68 54.8417 1108.24 54.1132 1109.52 47.3079C1120.65 39.8818 1132.21 39.1532 1144.18 45.1221C1154.9 49.8096 1166.45 49.081 1178.84 42.9363C1190.05 36.8653 1201.61 36.1367 1213.49 40.7505C1229.08 48.3761 1240.63 47.6475 1248.15 38.5647C1259.16 29.2616 1270.72 28.533 1282.81 36.3789C1295.79 45.3841 1307.35 44.6555 1317.47 34.1931C1328.4 23.6793 1339.95 22.9507 1352.12 32.0073C1364.18 40.9036 1375.74 40.175 1386.78 29.8216C1397.73 19.4744 1409.28 18.7458 1421.44 27.6358C1433.31 36.109 1444.86 35.3804 1456.09 25.45C1467.07 15.536 1478.62 14.8074 1490.75 23.2642C1503.06 31.9664 1514.61 31.2378 1525.41 21.0784C1536.36 10.9089 1547.92 10.1803 1560.06 18.8926C1573.01 28.7368 1584.56 28.0082 1594.72 16.7068C1605.6 5.36001 1617.16 4.63142 1629.38 14.521C1639.83 21.6005 1651.39 20.8719 1664.04 12.3353C1675.1 3.89846 1686.65 3.16986 1698.69 10.1495C1712.53 19.2349 1724.08 18.5063 1733.35 7.96369" stroke="#312964" stroke-width="1.5"/>
<path d="M123.037 183.858C130.581 174.568 138.765 173.965 147.589 182.049C153.917 185.709 162.101 185.106 172.142 180.239C180.023 175.532 188.207 174.929 196.694 178.43C206.081 182.71 214.265 182.107 221.246 176.62C229.066 171.072 237.25 170.469 245.798 174.811C255.575 180.433 263.759 179.83 270.35 173.002C278.07 166.09 286.254 165.487 294.903 171.192C301.572 174.288 309.756 173.685 319.455 169.383C327.376 165.212 335.56 164.609 344.007 167.573C358.048 174.733 366.232 174.13 368.559 165.764C376.142 157.01 384.327 156.407 393.111 163.954C398.431 165.706 406.615 165.103 417.663 162.145C425.69 159.41 433.874 158.807 442.216 160.336C454.43 163.533 462.614 162.93 466.768 158.526C474.652 153.848 482.836 153.245 491.32 156.717C497.694 158.376 505.878 157.773 515.872 154.907C523.9 152.187 532.084 151.584 540.424 153.098C548.473 154.488 556.658 153.884 564.977 151.288C573.015 148.713 581.199 148.11 589.529 149.479C607.828 154.779 616.013 154.176 614.081 147.669C621.778 140.453 629.962 139.85 638.633 145.86C647.124 151.621 655.308 151.018 663.185 144.051C670.901 137.095 679.085 136.492 687.737 142.241C693.568 144.246 701.752 143.643 712.29 140.432C720.295 137.407 728.479 136.803 736.842 138.622C749.27 142.46 757.454 141.857 761.394 136.813C769.23 131.482 777.414 130.879 785.946 135.003C791.959 136.616 800.143 136.013 810.498 133.194C818.532 130.546 826.716 129.943 835.051 131.384C851.63 136.214 859.814 135.611 859.603 129.575C867.343 122.953 875.527 122.35 884.155 127.766C894.553 135.413 902.737 134.81 908.707 125.956C916.274 116.985 924.458 116.382 933.259 124.147C939.391 127.34 947.575 126.737 957.811 122.337C965.728 118.108 973.912 117.505 982.364 120.528C996.586 127.951 1004.77 127.348 1006.92 118.718C1014.48 109.689 1022.66 109.086 1031.47 116.909C1039.17 122.83 1047.35 122.227 1056.02 115.099C1063.73 108.043 1071.91 107.44 1080.57 113.29C1089.21 119.113 1097.4 118.51 1105.12 111.481C1112.84 104.453 1121.02 103.85 1129.68 109.671C1136.76 113.378 1144.94 112.775 1154.23 107.862C1162.1 103.053 1170.29 102.45 1178.78 106.052C1189.96 112.038 1198.15 111.435 1203.33 104.243C1211.02 96.867 1219.2 96.2639 1227.89 102.433C1237.65 110.127 1245.83 109.524 1252.44 100.624C1260 91.6529 1268.19 91.0497 1276.99 98.8145C1283.22 102.176 1291.4 101.573 1301.54 97.0051C1309.45 92.6023 1317.63 91.9991 1326.09 95.1957C1335.53 99.1666 1343.71 98.5634 1350.65 93.3862C1358.49 88.1423 1366.67 87.5391 1375.2 91.5768C1386.14 97.9739 1394.32 97.3708 1399.75 89.7673C1407.41 81.9999 1415.59 81.3968 1424.3 87.9579C1431.45 92.199 1439.64 91.5959 1448.85 86.1485C1456.69 80.803 1464.87 80.1998 1473.41 84.339C1479.05 85.5856 1487.23 84.9825 1497.96 82.5296C1506.02 80.2731 1514.21 79.67 1522.51 80.7201C1539.95 84.699 1548.13 84.0959 1547.06 78.9107C1554.86 73.0721 1563.05 72.469 1571.62 77.1013C1578.92 80.3395 1587.1 79.7363 1596.17 75.2918C1604.08 70.9325 1612.26 70.3294 1620.72 73.4824C1633.58 80.1166 1641.77 79.5135 1645.27 71.6729C1652.9 63.5285 1661.08 62.9253 1669.82 69.8635C1676.11 72.973 1684.29 72.3698 1694.38 68.0541C1702.3 63.8978 1710.48 63.2946 1718.93 66.2446C1730.13 71.2517 1738.31 70.6486 1743.48 64.4352C1751.24 58.031 1759.42 57.4279 1768.03 62.6257C1774.97 65.7888 1783.16 65.1857 1792.59 60.8163C1800.5 56.5585 1808.68 55.9554 1817.14 59.0069C1827.62 63.6151 1835.8 63.012 1841.69 57.1974" stroke="#312964" stroke-width="1.5"/>
<path d="M5.19822 119.537C10.7242 113.763 16.4322 110.857 22.3223 110.818C28.118 110.609 34.1477 112.77 40.4113 117.302C52.0951 125.966 63.5178 125.241 74.6794 115.127C80.2902 110.179 86.0079 107.425 91.8324 106.864C97.6892 106.302 103.709 108.311 109.892 112.891C116.649 113.993 128.071 113.268 144.161 110.716C155.486 108.467 166.909 107.742 178.429 108.541C195.455 110.793 206.932 111.662 212.861 111.148C218.721 110.638 218.981 109.024 213.642 106.306C224.883 99.5164 236.305 98.7913 247.91 104.13C251.657 104.301 256.474 104.357 262.363 104.299C268.121 104.015 275.041 103.214 283.123 101.895C294.449 99.6462 305.872 98.9212 317.391 99.7198C352.895 105.183 364.317 104.458 351.659 97.5446C357.279 93.2507 363.028 90.9959 368.907 90.7802C374.705 90.4939 380.694 92.0037 386.872 95.3093C395.131 97.7055 406.554 96.9804 421.14 93.1341C426.908 91.343 432.73 90.2229 438.604 89.7738C444.468 89.3253 450.385 89.7003 456.353 90.8988C468.845 93.6211 480.268 92.896 490.621 88.7236C501.822 84.4974 513.245 83.7723 524.889 86.5483C529.895 87.5537 535.327 87.7476 541.187 87.1302C547.04 86.5132 553.345 85.5741 560.103 84.3131C571.297 81.5408 582.72 80.8157 594.371 82.1378C610.21 85.8693 621.067 87.5953 626.942 87.316C632.972 87.1159 633.853 84.6448 629.584 79.9025C640.384 69.3733 651.807 68.6482 663.852 77.7273C673.133 82.6964 684.555 81.9713 698.12 75.552C703.811 72.3722 709.593 70.6353 715.467 70.3415C721.656 70.1812 727.612 71.1729 733.333 73.3168C743.713 76.6285 755.136 75.9034 767.601 71.1415C773.419 68.994 779.221 67.5748 785.008 66.8841C790.857 66.1895 796.792 66.8636 802.814 68.9063C810.829 70.146 822.252 69.4209 837.082 66.731C848.394 64.2645 859.817 63.5394 871.35 64.5557C890.507 68.1688 902.905 69.6335 908.545 68.9499C914.393 68.2531 913.733 66.0433 906.563 62.3205C917.396 52.8754 928.818 52.1503 940.831 60.1452C945.628 62.1219 950.969 63.0481 956.853 62.924C962.737 62.7988 969.134 61.1274 976.045 57.91C987.132 51.8969 998.554 51.1718 1010.31 55.7347C1018.91 57.7425 1030.34 57.0174 1044.58 53.5595C1050.36 51.8343 1056.19 50.8664 1062.07 50.6557C1068.06 50.5377 1073.96 50.7606 1079.79 51.3242C1101.07 56.1774 1112.5 55.4523 1114.06 49.149C1119.78 45.8763 1125.55 43.8938 1131.36 43.2015C1137.21 42.5069 1143.18 43.7443 1149.27 46.9137C1159.82 51.5485 1171.25 50.8234 1183.54 44.7384C1194.63 38.7303 1206.05 38.0052 1217.81 42.5632C1225.67 46.3827 1232.51 48.018 1238.33 47.469C1244.19 46.9178 1249.09 44.5375 1253.02 40.3279C1264.03 31.6286 1275.45 30.9035 1287.29 38.1527C1293.83 42.1838 1300.05 44.151 1305.93 44.0542C1311.76 43.8675 1317.29 41.1553 1322.51 35.9174C1333.32 25.6012 1344.74 24.8761 1356.77 33.7422C1368.59 42.3416 1380.01 41.6166 1391.04 31.5669C1396.61 26.5065 1402.33 23.8219 1408.21 23.513C1414.43 23.3203 1420.45 25.2598 1426.25 29.3317C1437.98 37.2529 1449.4 36.5278 1460.52 27.1564C1466.08 22.5153 1471.8 19.9348 1477.71 19.4148C1483.57 18.8977 1489.58 20.7332 1495.74 24.9212C1508.07 33.544 1519.49 32.8189 1530 22.7459C1540.83 12.653 1552.25 11.9279 1564.27 20.5706C1570.74 25.4229 1576.94 27.5918 1582.88 27.0772C1588.74 26.5679 1594.28 23.654 1599.49 18.3354C1610.37 7.61767 1621.8 6.89258 1633.75 16.1601C1639.08 19.3184 1644.69 20.8229 1650.57 20.6736C1656.39 20.4454 1662.52 18.1959 1668.97 13.9249C1679.91 5.64758 1691.33 4.92249 1703.23 11.7496C1716.94 20.6615 1728.36 19.9364 1737.5 9.57435" stroke="#312964" stroke-width="1.5"/>
<path d="M9.90033 121.929C15.5084 116.015 21.3145 113.202 27.3187 113.49C33.1343 113.435 39.2512 115.487 45.6695 119.644C57.2064 127.772 68.4995 127.05 79.5488 117.48C85.307 112.903 91.1225 110.236 96.9952 109.478C102.932 108.717 109.04 110.622 115.318 115.194C122.193 116.478 133.486 115.757 149.197 113.03C160.381 110.593 171.674 109.871 183.076 110.866C199.688 113.148 211.034 113.957 217.115 113.292C223.059 112.637 223.636 111.066 218.846 108.58C230.193 102.35 241.486 101.629 252.725 106.416C256.629 106.232 261.581 106.263 267.583 106.509C273.322 106.307 280.293 105.514 288.494 104.131C299.688 101.861 310.981 101.14 322.373 101.966C356.946 107.33 368.239 106.608 356.253 99.802C361.963 95.4936 367.809 93.3059 373.791 93.2387C379.611 93.0305 385.688 94.4565 392.022 97.5169C400.274 99.7083 411.567 98.9868 425.901 95.3524C431.759 93.6895 437.675 92.591 443.648 92.0569C449.6 91.5243 455.607 91.861 461.67 93.0673C474.393 95.8949 485.686 95.1735 495.549 90.9029C506.611 86.5557 517.904 85.8343 529.429 88.7385C534.572 89.9354 540.114 90.0985 546.057 89.2279C551.987 88.3581 558.368 87.4332 565.198 86.4533C576.176 83.87 587.469 83.1486 599.077 84.2889C614.606 87.747 625.357 89.3789 631.33 89.1844C637.615 89.1483 638.787 86.7548 634.846 82.0037C645.526 71.6812 656.819 70.9598 668.726 79.8393C677.877 84.6729 689.17 83.9514 702.605 77.6749C708.389 74.5172 714.267 72.8267 720.238 72.6032C726.842 72.6465 732.887 73.5754 738.374 75.3897C748.653 78.3031 759.946 77.5816 772.253 73.2253C778.25 71.4713 784.148 70.0857 789.945 69.0686C795.866 68.0436 801.891 68.6675 808.022 70.9401C815.962 72.2572 827.255 71.5357 841.902 68.7757C853.079 66.2373 864.372 65.5159 875.781 66.6113C894.739 70.3748 906.969 71.7552 912.472 70.7524C918.392 69.7229 918.085 67.5808 911.55 64.3261C922.251 55.4944 933.544 54.773 945.429 62.1617C950.346 63.7782 955.801 64.6444 961.794 64.7603C967.786 64.874 974.254 63.2461 981.199 59.8765C992.151 53.8216 1003.44 53.1001 1015.08 57.7121C1023.62 59.7872 1034.91 59.0658 1048.96 55.5477C1054.82 53.7 1060.75 52.7476 1066.73 52.6905C1072.92 52.8187 1078.92 53.0094 1084.73 53.2625C1105.47 57.6213 1116.76 56.8998 1118.61 51.0981C1124.48 48.2657 1130.35 46.3393 1136.19 45.3191C1142.11 44.2941 1148.17 45.4587 1154.37 48.813C1164.75 53.3951 1176.04 52.6736 1188.25 46.6485C1199.21 40.7034 1210.51 39.9819 1222.13 44.4841C1230.05 48.3103 1236.95 49.8565 1242.82 49.1229C1248.75 48.3848 1253.78 46.0768 1257.9 42.199C1268.9 34.1035 1280.19 33.382 1291.78 40.0346C1298.37 43.5942 1304.67 45.4593 1310.66 45.6299C1316.54 45.6209 1322.17 42.9941 1327.55 37.7494C1338.24 27.6308 1349.54 26.9094 1361.43 35.585C1373 43.8879 1384.3 43.1664 1395.31 33.4205C1400.98 28.4733 1406.8 25.8729 1412.77 25.6193C1419.44 25.5978 1425.54 27.4365 1431.08 31.1354C1442.65 38.5047 1453.94 37.7832 1464.96 28.971C1470.58 24.6457 1476.4 22.1453 1482.44 21.4696C1488.38 20.7996 1494.48 22.5383 1500.73 26.6858C1513.08 35.2293 1524.37 34.5078 1534.61 24.5214C1545.31 14.5052 1556.6 13.7837 1568.49 22.357C1574.94 27.1395 1581.23 29.1982 1587.34 28.5332C1593.28 27.8789 1598.92 25.0584 1604.25 20.0718C1615.15 9.98321 1626.44 9.26173 1638.13 17.9074C1643.56 20.6841 1649.27 22.1053 1655.26 22.171C1661.13 22.0789 1667.34 19.896 1673.9 15.6222C1684.72 7.50453 1696.02 6.78307 1707.78 13.4578C1721.36 22.1963 1732.65 21.4748 1741.66 11.2934" stroke="#312964" stroke-width="1.5"/>
<path d="M14.6053 124.361C20.2952 118.307 26.1996 115.586 32.3183 116.2C38.1537 116.301 44.3578 118.242 50.9305 122.025C62.3201 129.617 73.4835 128.899 84.4209 119.872C90.3269 115.666 96.2403 113.085 102.161 112.131C108.178 111.171 114.374 112.973 120.746 117.536C127.741 119.002 138.904 118.284 154.237 115.383C165.277 112.758 176.441 112.04 187.727 113.23C203.924 115.542 215.139 116.291 221.372 115.476C227.4 114.675 228.293 113.148 224.052 110.894C235.507 105.223 246.67 104.505 257.543 108.741C261.603 108.201 266.691 108.207 272.805 108.759C278.526 108.638 285.547 107.854 293.868 106.405C304.93 104.115 316.094 103.398 327.358 104.252C361.001 109.517 372.164 108.799 360.849 102.099C366.65 97.776 372.593 95.6552 378.677 95.7364C384.52 95.6062 390.686 96.9486 397.174 99.7634C405.419 101.75 416.582 101.032 430.665 97.6102C436.613 96.0753 442.623 94.9983 448.694 94.3792C454.734 93.7623 460.832 94.0607 466.99 95.2746C479.944 98.2075 491.107 97.4897 500.48 93.1214C511.403 88.6534 522.566 87.9356 533.971 90.9681C539.251 92.3565 544.904 92.4888 550.93 91.3649C556.937 90.2422 563.392 89.3315 570.296 88.6326C581.058 86.2385 592.222 85.5208 603.786 86.4793C619.004 89.6644 629.649 91.2021 635.721 91.0925C642.26 91.2202 643.724 88.904 640.112 84.1438C650.671 74.0282 661.834 73.3105 673.602 81.9905C682.624 86.6887 693.787 85.9709 707.092 79.8373C712.97 76.7017 718.944 75.0574 725.013 74.9042C732.03 75.1508 738.165 76.0167 743.418 77.5017C753.594 80.0168 764.758 79.2991 776.908 75.3485C783.085 73.9879 789.077 72.6358 794.885 71.2923C800.877 69.9369 806.993 70.5104 813.233 73.013C821.096 74.4075 832.26 73.6898 846.724 70.8597C857.766 68.2496 868.929 67.5319 880.214 68.7064C898.973 72.6206 911.036 73.9167 916.402 72.5948C922.393 71.2327 922.439 69.1581 916.539 66.3709C927.11 58.1527 938.273 57.435 950.03 64.2176C955.066 65.4738 960.635 66.2799 966.737 66.6357C972.837 66.9884 979.376 65.4039 986.355 61.8821C997.173 55.7854 1008.34 55.0676 1019.85 59.7289C1028.32 61.8714 1039.49 61.1536 1053.34 57.5756C1059.29 55.6053 1065.31 54.6683 1071.39 54.7647C1077.79 55.1388 1083.88 55.2973 1089.66 55.2401C1109.86 59.1048 1121.03 58.3871 1123.15 53.0868C1129.19 50.6944 1135.15 48.8241 1141.03 47.4759C1147.02 46.1205 1153.17 47.2123 1159.48 50.7513C1169.68 55.2809 1180.84 54.5632 1192.97 48.598C1203.8 42.7159 1214.96 41.9982 1226.46 46.4448C1234.44 50.2775 1241.39 51.7347 1247.3 50.8164C1253.32 49.8913 1258.48 47.6556 1262.78 44.1092C1273.77 36.6175 1284.93 35.8998 1296.27 41.956C1302.91 45.0441 1309.29 46.8071 1315.39 47.245C1321.32 47.4136 1327.06 44.8721 1332.6 39.6204C1343.17 29.6997 1354.33 28.9819 1366.09 37.4672C1377.42 45.4738 1388.58 44.756 1399.58 35.3139C1405.35 30.4797 1411.27 27.9634 1417.33 27.7651C1424.45 27.9145 1430.64 29.6523 1435.9 32.9784C1447.32 39.7959 1458.49 39.0781 1469.4 30.8251C1475.08 26.8157 1481.01 24.3952 1487.17 23.5637C1493.19 22.7407 1499.38 24.3827 1505.72 28.4896C1518.1 36.9537 1529.26 36.236 1539.21 26.3363C1549.78 16.397 1560.95 15.6792 1572.7 24.1831C1579.15 28.8958 1585.52 30.8444 1591.79 30.0288C1597.82 29.2293 1603.57 26.5022 1609.03 21.8476C1619.93 12.388 1631.09 11.6703 1642.52 19.6943C1648.05 22.0894 1653.86 23.4272 1659.96 23.7078C1665.86 23.7517 1672.16 21.6354 1678.84 17.3588C1689.54 9.40078 1700.7 8.68303 1712.33 15.2055C1725.78 23.7707 1736.95 23.0529 1745.82 13.0522" stroke="#312964" stroke-width="1.5"/>
<path d="M19.3121 126.824C25.0839 120.63 31.0865 118.002 37.3199 118.942C43.1754 119.198 49.4665 121.029 56.1933 124.437C67.4352 131.493 78.4691 130.779 89.295 122.295C95.349 118.46 101.36 115.966 107.329 114.816C113.426 113.657 119.709 115.354 126.176 119.909C133.29 121.556 144.324 120.843 159.278 117.767C170.176 114.955 181.21 114.241 192.38 115.626C208.162 117.968 219.246 118.657 225.631 117.692C231.742 116.745 232.952 115.261 229.261 113.239C240.823 108.127 251.857 107.413 262.362 111.097C266.579 110.202 271.802 110.182 278.03 111.039C283.733 111 290.804 110.224 299.244 108.711C310.174 106.4 321.208 105.686 332.345 106.569C365.057 111.735 376.091 111.022 365.447 104.427C371.339 100.09 377.379 98.0359 383.566 98.2655C389.431 98.2133 395.685 99.4719 402.328 102.041C410.565 103.823 421.599 103.109 435.43 99.8993C441.468 98.4924 447.572 97.4369 453.743 96.7328C459.87 96.0314 466.059 96.2915 472.311 97.513C485.497 100.551 496.531 99.8369 505.413 95.3712C516.196 90.7825 527.23 90.0686 538.514 93.2294C543.933 94.8091 549.696 94.9104 555.805 93.5332C561.888 92.1577 568.419 91.2609 575.396 90.8431C585.942 88.6384 596.976 87.9244 608.497 88.7013C623.404 91.6136 633.942 93.0572 640.113 93.0324C646.907 93.3236 648.662 91.0845 645.379 86.3149C655.818 76.4063 666.851 75.6924 678.48 84.1732C687.372 88.736 698.406 88.022 711.582 82.0314C717.553 78.9179 723.622 77.3197 729.79 77.2367C737.22 77.6863 743.445 78.4891 748.463 79.645C758.537 81.7619 769.571 81.048 781.565 77.5032C787.922 76.5359 794.009 75.2173 799.827 73.5473C805.89 71.8614 812.097 72.3846 818.446 75.1169C826.233 76.589 837.267 75.8751 851.548 72.9751C862.454 70.2935 873.488 69.5795 884.649 70.8333C903.21 74.8983 915.104 76.1103 920.333 74.4695C926.396 72.7746 926.795 70.7671 921.531 68.447C931.971 60.8424 943.004 60.1285 954.632 66.3052C959.788 67.201 965.471 67.9467 971.682 68.5425C977.89 69.134 984.501 67.5928 991.514 63.9188C1002.2 57.7804 1013.23 57.0665 1024.62 61.777C1033.03 63.987 1044.06 63.2731 1057.72 59.6353C1063.75 57.5423 1069.87 56.6207 1076.06 56.8704C1082.65 57.4904 1088.84 57.6166 1094.6 57.2489C1114.26 60.6201 1125.29 59.9061 1127.7 55.1071C1133.89 53.1547 1139.95 51.3404 1145.87 49.6641C1151.93 47.9782 1158.17 48.9971 1164.58 52.7208C1174.61 57.198 1185.65 56.4841 1197.68 50.579C1208.39 44.7601 1219.42 44.0462 1230.78 48.4372C1238.83 52.2765 1245.83 53.6446 1251.79 52.5415C1257.89 51.4294 1263.19 49.2658 1267.67 46.0509C1278.64 39.163 1289.68 38.4491 1300.77 43.9091C1307.46 46.5256 1313.91 48.1864 1320.13 48.8916C1326.11 49.2377 1331.95 46.7814 1337.65 41.5227C1348.1 31.7998 1359.13 31.0859 1370.75 39.3809C1381.83 47.0914 1392.87 46.3775 1403.85 37.2391C1409.72 32.5179 1415.73 30.0857 1421.9 29.9425C1429.46 30.2624 1435.74 31.8992 1440.73 34.8528C1452 41.1186 1463.03 40.4047 1473.83 32.711C1479.59 29.0173 1485.61 26.6767 1491.9 25.6892C1498.01 24.7133 1504.28 26.2584 1510.72 30.3247C1523.11 38.7094 1534.15 37.9955 1543.82 28.1829C1554.26 18.3204 1565.29 17.6065 1576.92 26.0411C1583.36 30.684 1589.81 32.5224 1596.25 31.5561C1602.36 30.6114 1608.21 27.9776 1613.8 23.6547C1624.71 14.8243 1635.74 14.1104 1646.9 21.513C1652.53 23.5264 1658.45 24.7807 1664.65 25.276C1670.6 25.456 1676.98 23.4062 1683.78 19.1266C1694.36 11.3284 1705.39 10.6145 1716.88 16.9848C1730.21 25.3768 1741.24 24.6629 1749.99 14.843" stroke="#312964" stroke-width="1.5"/>
<path d="M24.0205 129.312C29.874 122.978 35.975 120.444 42.3234 121.709C48.199 122.12 54.5771 123.842 61.4577 126.875C72.5513 133.394 83.4556 132.684 94.1706 124.745C100.373 121.279 106.482 118.872 112.498 117.525C118.676 116.167 125.046 117.761 131.608 122.307C138.841 124.136 149.745 123.426 164.321 120.177C175.076 117.177 185.98 116.467 197.034 118.047C212.401 120.42 223.354 121.049 229.891 119.934C236.086 118.841 237.612 117.4 234.471 115.609C246.141 111.056 257.045 110.346 267.184 113.479C271.556 112.228 276.914 112.183 283.255 113.345C288.94 113.387 296.062 112.619 304.621 111.042C315.42 108.711 326.324 108.001 337.334 108.912C369.114 113.981 380.019 113.271 370.047 106.782C376.029 102.43 382.166 100.442 388.456 100.82C394.344 100.846 400.687 102.021 407.484 104.344C415.713 105.921 426.617 105.211 440.197 102.214C446.325 100.935 452.524 99.9011 458.793 99.1118C465.008 98.326 471.288 98.5476 477.634 99.7766C491.051 102.919 501.955 102.209 510.347 97.6466C520.991 92.9373 531.895 92.2273 543.06 95.5166C548.616 97.2876 554.49 97.3578 560.681 95.7272C566.841 94.0986 573.446 93.2159 580.497 93.079C590.827 91.0638 601.731 90.3538 613.21 90.949C627.805 93.5887 638.237 94.9385 644.507 94.9982C651.556 95.4529 653.602 93.2906 650.647 88.5114C660.966 78.8099 671.87 78.0999 683.36 86.3814C692.122 90.809 703.027 90.099 716.073 84.2514C722.137 81.1599 728.302 79.6077 734.568 79.5949C742.413 80.2471 748.727 80.9867 753.51 81.8138C763.481 83.5326 774.386 82.8226 786.223 79.6838C792.76 79.1096 798.942 77.8243 804.77 75.8278C810.904 73.8114 817.201 74.2842 823.66 77.2462C831.371 78.7959 842.276 78.0858 856.373 75.1162C867.144 72.363 878.049 71.653 889.086 72.9862C907.448 77.2021 919.174 78.3302 924.266 76.3705C930.4 74.3429 931.152 72.4022 926.523 70.5485C936.833 63.5577 947.738 62.8477 959.236 68.4185C964.511 68.9539 970.308 69.6393 976.629 70.4749C982.945 71.3051 989.627 69.8071 996.673 65.9809C1007.22 59.8009 1018.13 59.0909 1029.39 63.8509C1037.74 66.1284 1048.64 65.4184 1062.1 61.7209C1068.22 59.5053 1074.43 58.5989 1080.72 59.0019C1087.52 59.8676 1093.8 59.9614 1099.54 59.2833C1118.66 62.1613 1129.56 61.4513 1132.25 57.1533C1138.6 55.6407 1144.75 53.8823 1150.7 51.8779C1156.84 49.8615 1163.17 50.8074 1169.69 54.7157C1179.55 59.1408 1190.45 58.4308 1202.4 52.5857C1212.97 46.8301 1223.88 46.1201 1235.11 50.4557C1243.22 54.3015 1250.28 55.5805 1256.29 54.2926C1262.47 52.9933 1267.89 50.9018 1272.55 48.0181C1283.52 41.7341 1294.42 41.0241 1305.26 45.8881C1312 48.033 1318.53 49.5916 1324.86 50.5639C1330.89 51.0875 1336.84 48.7164 1342.7 43.4505C1353.03 33.9255 1363.93 33.2155 1375.41 41.3205C1386.25 48.735 1397.15 48.025 1408.13 39.1905C1414.09 34.5821 1420.2 32.2339 1426.46 32.1458C1434.48 32.6358 1440.84 34.1715 1445.56 36.7529C1456.67 42.4672 1467.58 41.7572 1478.28 34.6229C1484.1 31.2448 1490.22 28.984 1496.63 27.8405C1502.82 26.7115 1509.18 28.1597 1515.71 32.1852C1528.13 40.4906 1539.04 39.7806 1548.43 30.0552C1558.74 20.2698 1569.64 19.5598 1581.14 27.9252C1587.58 32.4984 1594.1 34.2265 1600.71 33.1094C1606.91 32.0194 1612.86 29.4788 1618.58 25.4876C1629.49 17.2863 1640.4 16.5763 1651.29 23.3576C1657.02 24.9893 1663.04 26.1601 1669.35 26.87C1675.35 27.186 1681.8 25.2026 1688.73 20.92C1699.18 13.2817 1710.08 12.5717 1721.44 18.79C1734.63 27.0089 1745.54 26.2989 1754.15 16.66" stroke="#312964" stroke-width="1.5"/>
<path d="M28.7296 131.822C34.6648 125.348 40.8642 122.907 47.3279 124.498C53.2237 125.063 59.6887 126.675 66.7228 129.333C77.6679 135.317 88.4426 134.611 99.0469 127.215C105.398 124.119 111.605 121.8 117.669 120.256C123.926 118.699 130.383 120.189 137.04 124.726C144.393 126.736 155.168 126.03 169.364 122.608C179.976 119.42 190.751 118.714 201.688 120.49C216.642 122.894 227.463 123.463 234.152 122.198C240.43 120.959 242.273 119.56 239.682 118.001C251.46 114.006 262.234 113.3 272.006 115.883C276.534 114.275 282.026 114.205 288.482 115.672C294.148 115.795 301.321 115.035 309.999 113.393C320.666 111.042 331.44 110.336 342.323 111.276C373.172 116.248 383.947 115.542 374.647 109.158C380.72 104.791 386.954 102.87 393.348 103.396C399.258 103.5 405.689 104.591 412.64 106.668C420.861 108.041 431.636 107.335 444.964 104.55C451.183 103.399 457.476 102.386 463.843 101.512C470.146 100.641 476.517 100.825 482.957 102.061C496.606 105.308 507.381 104.602 515.282 99.9432C525.786 95.1133 536.561 94.4073 547.606 97.8253C553.3 99.7873 559.284 99.8264 565.558 97.9423C571.794 96.0607 578.474 95.1919 585.599 95.3359C595.713 93.5104 606.488 92.8045 617.923 93.218C632.206 95.5854 642.533 96.8413 648.901 96.9856C656.205 97.6035 658.543 95.5178 655.916 90.7287C666.115 81.2343 676.89 80.5284 688.24 88.6108C696.873 92.9033 707.647 92.1973 720.564 86.4929C726.723 83.4233 732.983 81.9171 739.346 81.9743C747.606 82.8288 754.009 83.5052 758.558 84.0036C768.426 85.3243 779.201 84.6184 790.882 81.8857C797.6 81.7044 803.877 80.4524 809.714 78.1295C815.919 75.7825 822.306 76.2047 828.875 79.3963C836.51 81.0237 847.285 80.3177 861.199 77.2784C871.835 74.4539 882.61 73.748 893.523 75.1605C911.686 79.5276 923.245 80.5719 928.199 78.2934C934.404 75.933 935.509 74.0589 931.516 72.6712C941.697 66.2942 952.472 65.5882 963.84 70.5533C969.234 70.728 975.146 71.353 981.575 72.4283C988.001 73.4971 994.753 72.0424 1001.83 68.064C1012.25 61.8425 1023.02 61.1366 1034.16 65.9461C1042.45 68.2911 1053.23 67.5851 1066.48 63.8282C1072.69 61.4897 1078.99 60.5986 1085.38 61.1548C1092.4 62.2659 1098.76 62.3273 1104.47 61.3388C1123.05 63.7241 1133.83 63.0182 1136.8 59.2209C1143.31 58.1481 1149.56 56.4454 1155.54 54.1129C1161.75 51.7659 1168.16 52.6388 1174.79 56.7316C1184.48 61.1046 1195.25 60.3986 1207.12 54.6137C1217.56 48.9215 1228.34 48.2155 1239.44 52.4958C1247.61 56.3481 1254.72 57.5379 1260.78 56.0651C1267.04 54.5787 1272.59 52.5591 1277.43 50.0065C1288.4 44.3263 1299.17 43.6203 1309.76 47.8886C1316.54 49.5619 1323.15 51.0182 1329.59 52.2575C1335.68 52.9585 1341.73 50.6725 1347.75 45.3992C1357.96 36.0724 1368.74 35.3664 1380.07 43.2813C1390.67 50.4002 1401.44 49.6942 1412.4 41.1634C1418.46 36.6679 1424.67 34.4036 1431.03 34.3705C1439.49 35.0303 1445.94 36.4648 1450.39 38.6741C1461.35 43.837 1472.13 43.131 1482.72 36.5562C1488.61 33.4938 1494.82 31.3128 1501.37 30.0131C1507.64 28.7309 1514.09 30.0822 1520.71 34.0669C1533.15 42.2928 1543.92 41.5868 1553.03 31.949C1563.22 22.2406 1573.99 21.5347 1585.36 29.8311C1591.79 34.3345 1598.39 35.9522 1605.17 34.6841C1611.45 33.4488 1617.51 31.0014 1623.35 27.3417C1634.28 19.7695 1645.05 19.0635 1655.68 25.2239C1661.5 26.4736 1667.63 27.5608 1674.05 28.4854C1680.09 28.9372 1686.63 27.0203 1693.67 22.7345C1704 15.2562 1714.77 14.5503 1725.99 20.6166C1739.06 28.6625 1749.84 27.9565 1758.32 18.4987" stroke="#312964" stroke-width="1.5"/>
<path d="M33.4404 134.35C39.4571 127.736 45.755 125.387 52.3341 127.304C58.2504 128.024 64.8021 129.526 71.9895 131.809C82.7855 137.257 93.4306 136.555 103.925 129.703C110.425 126.978 116.73 124.744 122.841 123.003C129.178 121.248 135.723 122.634 142.474 127.162C149.947 129.354 160.592 128.652 174.409 125.056C184.878 121.681 195.523 120.979 206.345 122.951C220.884 125.386 231.573 125.896 238.414 124.48C244.775 123.095 246.935 121.738 244.894 120.409C256.781 116.973 267.426 116.271 276.829 118.304C281.513 116.34 287.14 116.244 293.71 118.016C299.358 118.22 306.581 117.469 315.378 115.762C325.913 113.391 336.558 112.689 347.314 113.657C377.232 118.533 387.877 117.831 379.249 111.551C385.413 107.169 391.743 105.316 398.241 105.99C404.173 106.171 410.693 107.178 417.798 109.01C426.011 110.178 436.656 109.476 449.733 106.904C456.043 105.881 462.43 104.889 468.896 103.929C475.285 102.975 481.748 103.119 488.282 104.363C502.163 107.715 512.808 107.013 520.218 102.257C530.583 97.3071 541.228 96.6053 552.153 100.152C557.986 102.305 564.08 102.313 570.436 100.175C576.748 98.0405 583.503 97.1856 590.702 97.6104C600.601 95.9748 611.246 95.273 622.638 95.5049C636.609 97.6003 646.829 98.7624 653.297 98.9912C660.855 99.772 663.485 97.7627 661.187 92.9634C671.266 83.6763 681.911 82.9745 693.122 90.8579C701.625 95.0154 712.27 94.3136 725.057 88.7524C731.309 85.7046 737.666 84.2443 744.127 84.3716C752.801 85.428 759.294 86.0411 763.606 86.2109C773.372 87.1338 784.017 86.4319 795.542 84.1054C802.441 84.3171 808.813 83.0982 814.659 80.4488C820.935 77.7711 827.413 78.1428 834.091 81.5639C841.651 83.269 852.296 82.5672 866.026 79.4585C876.527 76.5627 887.172 75.8609 897.962 77.353C915.927 81.8713 927.317 82.8319 932.133 80.2348C938.408 77.5415 939.868 75.7337 936.511 74.8115C946.563 69.0484 957.208 68.3466 968.446 72.706C973.958 72.5201 979.984 73.0845 986.523 74.3994C993.057 75.7068 999.881 74.2951 1007 70.1645C1017.27 63.9017 1027.92 63.1999 1038.93 68.059C1047.16 70.4717 1057.81 69.7698 1070.87 65.9535C1077.16 63.4922 1083.55 62.6162 1090.05 63.3255C1097.27 64.682 1103.72 64.7108 1109.42 63.412C1127.45 65.3051 1138.1 64.6033 1141.35 61.3065C1148.02 60.6733 1154.37 59.0263 1160.38 56.3657C1166.66 53.688 1173.16 54.4878 1179.9 58.765C1189.41 63.0861 1200.06 62.3843 1211.83 56.6596C1222.16 51.0308 1232.8 50.329 1243.77 54.5541C1252 58.4128 1259.17 59.5133 1265.27 57.8557C1271.61 56.182 1277.3 54.2343 1282.32 52.0126C1293.28 46.9362 1303.92 46.2344 1314.25 49.9071C1321.09 51.1087 1327.78 52.4626 1334.33 53.9689C1340.47 54.8474 1346.62 52.6463 1352.8 47.3656C1362.89 38.2369 1373.54 37.535 1384.74 45.2601C1395.09 52.0834 1405.73 51.3816 1416.67 43.1546C1422.84 38.7718 1429.15 36.5913 1435.6 36.6131C1444.51 37.4424 1451.05 38.7757 1455.22 40.6131C1466.03 45.2247 1476.67 44.5229 1487.16 38.5076C1493.12 35.7608 1499.43 33.6594 1506.1 32.2035C1512.46 30.7681 1519 32.0223 1525.71 35.9661C1538.17 44.1126 1548.82 43.4108 1557.64 33.8606C1567.7 24.2295 1578.34 23.5277 1589.58 31.7552C1596 36.1888 1602.69 37.6961 1609.63 36.2769C1615.99 34.8962 1622.16 32.5418 1628.13 29.2137C1639.06 22.2705 1649.71 21.5686 1660.06 27.1082C1665.99 27.976 1672.22 28.9795 1678.75 30.1185C1684.83 30.7063 1691.45 28.8557 1698.61 24.5667C1708.82 17.2485 1719.47 16.5467 1730.55 22.4612C1743.49 30.3342 1754.13 29.6324 1762.48 20.3557" stroke="#312964" stroke-width="1.5"/>
<path d="M38.1521 136.893C44.2502 130.139 50.6467 127.882 57.3416 130.124C63.2783 130.999 69.9168 132.391 77.257 134.299C87.9035 139.211 98.4191 138.514 108.804 132.206C115.453 129.85 121.857 127.704 128.015 125.766C134.431 123.811 141.063 125.093 147.909 129.612C155.501 131.986 166.017 131.288 179.455 127.519C189.781 123.957 200.296 123.26 211.002 125.427C225.126 127.894 235.685 128.344 242.676 126.777C249.121 125.246 251.598 123.931 250.107 122.832C262.103 119.955 272.619 119.257 281.653 120.74C286.493 118.42 292.254 118.298 298.938 120.375C304.569 120.661 311.842 119.917 320.758 118.146C331.162 115.754 341.677 115.056 352.305 116.053C381.292 120.834 391.808 120.136 383.852 113.96C390.106 109.563 396.534 107.776 403.135 108.598C409.09 108.858 415.697 109.78 422.957 111.366C431.162 112.329 441.677 111.631 454.503 109.273C460.903 108.378 467.385 107.407 473.949 106.362C480.426 105.322 486.979 105.428 493.608 106.679C507.721 110.135 518.236 109.438 525.155 104.586C535.38 99.5158 545.896 98.8182 556.701 102.494C562.673 104.838 568.877 104.814 575.315 102.423C581.703 100.035 588.533 99.1939 595.806 99.8995C605.49 98.4539 616.005 97.7564 627.353 97.8067C641.013 99.6303 651.126 100.699 657.693 101.012C665.506 101.955 668.428 100.022 666.458 95.2126C676.418 86.1329 686.933 85.4353 698.005 93.1199C706.377 97.1425 716.893 96.4449 729.551 91.0271C735.897 88.001 742.349 86.5865 748.908 86.7837C757.997 88.0418 764.579 88.5915 768.656 88.433C778.318 88.958 788.833 88.2604 800.203 86.3402C807.283 86.9445 813.751 85.7588 819.605 82.783C825.952 79.7745 832.52 80.0956 839.308 83.7461C846.792 85.5289 857.307 84.8314 870.854 81.6534C881.219 78.6865 891.735 77.9889 902.401 79.5606C920.168 84.2304 931.391 85.1075 936.068 82.1918C942.414 79.1655 944.226 77.4238 941.506 76.9665C951.43 71.8175 961.946 71.1199 973.053 74.8737C978.683 74.327 984.823 74.8309 991.472 76.3853C998.115 77.9311 1005.01 76.5626 1012.16 72.2796C1022.3 65.9756 1032.82 65.278 1043.7 70.1869C1051.88 72.6672 1062.39 71.9696 1075.25 68.0941C1081.63 65.5098 1088.11 64.6489 1094.72 65.5113C1102.14 67.1129 1108.69 67.1091 1114.36 65.5C1131.85 66.9012 1142.37 66.2036 1145.9 63.4072C1152.73 63.2134 1159.17 61.6221 1165.22 58.6334C1171.57 55.6249 1178.17 56.3515 1185.01 60.8131C1194.35 65.0824 1204.86 64.3848 1216.55 58.7204C1226.75 53.1552 1237.26 52.4576 1248.1 56.6276C1256.4 60.4927 1263.62 61.504 1269.76 59.6614C1276.19 57.8004 1282 55.9244 1287.21 54.0335C1298.16 49.561 1308.67 48.8634 1318.75 51.9407C1325.63 52.6706 1332.4 53.9221 1339.07 55.6953C1345.25 56.7511 1351.52 54.6349 1357.86 49.3466C1367.83 40.4161 1378.34 39.7186 1389.4 47.2539C1399.51 53.7818 1410.02 53.0842 1420.95 45.1611C1427.21 40.891 1433.62 38.7942 1440.17 38.8708C1449.53 39.8691 1456.15 41.1012 1460.06 42.567C1470.71 46.6274 1481.22 45.9298 1491.6 40.4742C1497.63 38.0429 1504.04 36.0211 1510.84 34.4088C1517.28 32.8201 1523.9 33.9772 1530.71 37.8801C1543.19 45.9471 1553.71 45.2496 1562.25 35.7874C1572.18 26.2336 1582.7 25.536 1593.8 33.6946C1600.22 38.0585 1606.98 39.4553 1614.09 37.8849C1620.54 36.3587 1626.81 34.0972 1632.91 31.1005C1643.85 24.7863 1654.36 24.0888 1664.45 29.0077C1670.48 29.4935 1676.81 30.4132 1683.45 31.7667C1689.57 32.4903 1696.28 30.706 1703.56 26.4136C1713.64 19.2556 1724.16 18.558 1735.1 24.3209C1747.91 32.0211 1758.43 31.3235 1766.65 22.2281" stroke="#312964" stroke-width="1.5"/>
<path d="M42.8645 139.449C49.0439 132.554 55.5391 130.39 62.35 132.958C68.3074 133.988 75.0325 135.269 82.5254 136.802C93.0219 141.178 103.408 140.485 113.683 134.722C120.482 132.736 126.984 130.676 133.189 128.541C139.685 126.387 146.403 127.565 153.344 132.075C161.057 134.63 171.443 133.936 184.502 129.995C194.684 126.246 205.07 125.552 215.66 127.915C229.37 130.415 239.797 130.805 246.94 129.087C253.468 127.411 256.261 126.138 255.321 125.268C267.427 122.949 277.813 122.256 286.479 123.188C291.473 120.512 297.369 120.365 304.168 122.746C309.781 123.113 317.104 122.378 326.139 120.541C336.411 118.129 346.797 117.436 357.297 118.461C385.353 123.148 395.739 122.455 388.455 116.382C394.8 111.97 401.325 110.249 408.029 111.219C414.008 111.557 420.703 112.395 428.116 113.735C436.313 114.493 446.698 113.8 459.274 111.655C465.765 110.887 472.341 109.937 479.003 108.807C485.567 107.682 492.211 107.749 498.935 109.008C513.279 112.568 523.665 111.875 530.093 106.928C540.178 101.737 550.564 101.044 561.25 104.848C567.361 107.383 573.675 107.328 580.194 104.683C586.658 102.042 593.563 101.215 600.911 102.201C610.379 100.946 620.765 100.253 632.069 100.121C645.417 101.673 655.423 102.648 662.089 103.046C670.158 104.152 673.372 102.295 671.73 97.4742C681.57 88.6019 691.956 87.9087 702.888 95.3945C711.13 99.2823 721.516 98.5891 734.046 93.3148C740.485 90.3104 747.033 88.9416 753.69 89.2086C763.194 90.6679 769.866 91.1543 773.707 90.6676C783.264 90.7948 793.65 90.1016 804.864 88.5879C812.126 89.5847 818.689 88.432 824.552 85.1297C830.969 81.7905 837.627 82.0608 844.525 85.9407C851.934 87.8013 862.32 87.1081 875.683 83.861C885.913 80.823 896.299 80.1298 906.841 81.7813C924.41 86.6027 935.464 87.3964 940.003 84.1623C946.419 80.803 948.585 79.1269 946.502 79.1341C956.298 74.5992 966.684 73.906 977.66 77.0544C983.408 76.1468 989.662 76.59 996.421 78.3838C1003.17 80.168 1010.14 78.8425 1017.32 74.4072C1027.33 68.062 1037.72 67.3688 1048.48 72.3275C1056.59 74.8755 1066.97 74.1823 1079.64 70.2478C1086.1 67.5405 1092.68 66.6945 1099.39 67.7099C1107.02 69.5565 1113.65 69.52 1119.3 67.6006C1136.25 68.5104 1146.64 67.8172 1150.46 65.5209C1157.45 65.7664 1163.98 64.2306 1170.07 60.9137C1176.48 57.5745 1183.17 58.2278 1190.12 62.8737C1199.29 67.0913 1209.67 66.398 1221.27 60.794C1231.34 55.2925 1241.72 54.5993 1252.43 58.7143C1260.79 62.5857 1268.07 63.5076 1274.26 61.4802C1280.76 59.4317 1286.7 57.6274 1292.09 56.0671C1303.04 52.1984 1313.43 51.5052 1323.25 53.9874C1330.17 54.2455 1337.03 55.3945 1343.8 57.4345C1350.04 58.6676 1356.41 56.6362 1362.91 51.3402C1372.76 42.6081 1383.15 41.9148 1394.07 49.2605C1403.93 55.4933 1414.31 54.8001 1425.23 47.1808C1431.59 43.0232 1438.09 41.0101 1444.74 41.1415C1454.54 42.3085 1461.26 43.4392 1464.89 44.5336C1475.38 48.043 1485.77 47.3497 1496.05 42.4539C1502.14 40.338 1508.65 38.3957 1515.58 36.6269C1522.1 34.8849 1528.81 35.9448 1535.71 39.8067C1548.21 47.7942 1558.6 47.101 1566.86 37.727C1576.66 28.2506 1587.05 27.5574 1598.02 35.6473C1604.43 39.9414 1611.28 41.2276 1618.55 39.5059C1625.08 37.8342 1631.46 35.6655 1637.68 33.0001C1648.64 27.315 1659.02 26.6218 1668.84 30.9204C1674.97 31.0241 1681.4 31.8598 1688.15 33.4277C1694.32 34.2871 1701.1 32.569 1708.5 28.2732C1718.47 21.2755 1728.85 20.5822 1739.66 26.1935C1752.34 33.721 1762.73 33.0278 1770.82 24.1138" stroke="#312964" stroke-width="1.5"/>
<path d="M47.5772 142.016C53.8377 134.98 60.4317 132.909 67.3589 135.802C73.3371 136.987 80.1487 138.158 87.7938 139.315C98.1401 143.156 108.396 142.468 118.563 137.248C125.512 135.632 132.112 133.658 138.364 131.327C144.939 128.974 151.744 130.047 158.78 134.548C166.613 137.284 176.869 136.595 189.549 132.481C199.587 128.545 209.844 127.856 220.318 130.415C233.614 132.947 243.909 133.278 251.203 131.409C257.814 129.586 260.924 128.355 260.535 127.714C272.751 125.953 283.007 125.265 291.304 125.648C296.453 122.615 302.484 122.442 309.397 125.128C314.992 125.576 322.367 124.849 331.52 122.947C341.66 120.516 351.916 119.827 362.29 120.881C389.414 125.474 399.671 124.785 393.059 118.815C399.495 114.388 406.116 112.733 412.925 113.851C418.926 114.267 425.709 115.021 433.275 116.114C441.463 116.667 451.72 115.979 464.045 114.048C470.626 113.407 477.297 112.478 484.057 111.262C490.708 110.053 497.443 110.081 504.261 111.347C518.838 115.011 529.094 114.322 535.03 109.28C544.976 103.97 555.233 103.281 565.8 107.214C572.049 109.94 578.473 109.853 585.074 106.955C591.613 104.06 598.593 103.246 606.016 104.513C615.269 103.448 625.525 102.76 636.785 102.447C649.82 103.728 659.72 104.609 666.486 105.091C674.81 106.359 678.315 104.578 677.002 99.7463C686.723 91.0816 696.979 90.3928 707.771 97.68C715.883 101.433 726.14 100.744 738.54 95.6137C745.073 92.6308 751.717 91.3077 758.473 91.6445C768.391 93.3047 775.152 93.7275 778.757 92.9129C788.21 92.6424 798.467 91.9537 809.526 90.8466C816.97 92.2358 823.628 91.116 829.5 87.4872C835.986 83.8172 842.734 84.0367 849.743 88.1458C857.076 90.0844 867.332 89.3956 880.512 86.0795C890.606 82.9706 900.862 82.2819 911.281 84.0132C928.653 88.9864 939.538 89.6968 943.939 86.1444C950.424 82.4521 952.943 80.8414 951.498 81.3124C961.167 77.3918 971.423 76.703 982.267 79.2461C988.133 77.9776 994.501 78.3599 1001.37 80.3931C1008.23 82.4156 1015.27 81.133 1022.48 76.5454C1032.36 70.1592 1042.61 69.4704 1053.25 74.479C1061.3 77.0948 1071.56 76.4061 1084.02 72.4127C1090.57 69.5824 1097.24 68.7513 1104.05 69.9195C1111.89 72.0109 1118.62 71.9417 1124.24 69.712C1140.65 70.1309 1150.91 69.4421 1155.01 67.6457C1162.16 68.3303 1168.79 66.8501 1174.91 63.205C1181.4 59.5349 1188.17 60.1149 1195.22 64.9449C1204.22 69.111 1214.48 68.4222 1225.99 62.8786C1235.93 57.441 1246.19 56.7522 1256.76 60.8123C1265.19 64.6899 1272.52 65.5225 1278.75 63.31C1285.33 61.0742 1291.41 59.3413 1296.98 58.1115C1307.92 54.8467 1318.18 54.158 1327.75 56.0452C1334.72 55.8315 1341.65 56.878 1348.54 59.1846C1354.83 60.595 1361.31 58.6483 1367.97 53.3444C1377.69 44.8108 1387.95 44.122 1398.73 51.2781C1408.34 57.216 1418.6 56.5273 1429.5 49.2118C1435.97 45.1667 1442.57 43.2372 1449.31 43.4232C1459.56 44.7586 1466.37 45.7878 1469.72 46.511C1480.06 49.4695 1490.32 48.7808 1500.49 44.4447C1506.65 42.6443 1513.26 40.7814 1520.31 38.856C1526.92 36.9606 1533.72 37.9232 1540.71 41.744C1553.23 49.6521 1563.49 48.9633 1571.48 39.6777C1581.15 30.2788 1591.4 29.59 1602.24 37.6113C1608.65 41.8357 1615.57 43.0113 1623.01 41.1381C1629.63 39.3207 1636.11 37.2449 1642.46 34.9106C1653.42 29.8545 1663.68 29.1658 1673.23 32.8443C1679.46 32.5658 1685.99 33.3176 1692.85 35.0996C1699.06 36.0949 1705.93 34.4429 1713.45 30.1435C1723.29 23.3062 1733.55 22.6174 1744.22 28.0772C1756.77 35.4322 1767.03 34.7434 1774.99 26.0109" stroke="#312964" stroke-width="1.5"/>
<path d="M52.291 144.592C58.6326 137.416 65.3253 135.437 72.3691 138.655C78.3682 139.995 85.2663 141.055 93.0634 141.837C103.259 145.143 113.386 144.459 123.444 139.784C130.543 138.537 137.242 136.65 143.541 134.121C150.195 131.569 157.086 132.539 164.216 137.03C172.17 139.947 182.296 139.263 194.597 134.977C204.491 130.854 214.618 130.17 224.977 132.924C237.858 135.489 248.022 135.761 255.468 133.741C262.161 131.772 265.589 130.581 265.75 130.17C278.076 128.967 288.203 128.283 296.13 128.117C301.433 124.728 307.599 124.528 314.628 127.519C320.205 128.048 327.63 127.33 336.903 125.362C346.91 122.911 357.037 122.227 367.283 123.31C393.476 127.81 403.603 127.125 397.664 121.257C404.19 116.815 410.909 115.227 417.821 116.493C423.845 116.986 430.716 117.656 438.436 118.502C446.615 118.851 456.742 118.167 468.816 116.45C475.489 115.937 482.254 115.029 489.112 113.727C495.851 112.433 502.676 112.422 509.589 113.695C524.397 117.463 534.524 116.778 539.969 111.642C549.775 106.212 559.902 105.527 570.35 109.59C576.738 112.506 583.273 112.388 589.955 109.235C596.568 106.087 603.624 105.287 611.122 106.835C620.16 105.961 630.287 105.276 641.503 104.782C654.225 105.792 664.018 106.58 670.883 107.146C679.463 108.576 683.26 106.87 682.275 102.028C691.877 93.5705 702.004 92.8863 712.656 99.9749C720.637 103.594 730.764 102.909 743.036 97.9223C749.662 94.9609 756.403 93.6834 763.256 94.0898C773.59 95.9507 780.44 96.3099 783.809 95.1675C793.157 94.4995 803.284 93.8153 814.189 93.1149C821.815 94.8964 828.568 93.8094 834.448 89.8542C841.004 85.8532 847.842 86.0219 854.961 90.3602C862.219 92.3767 872.346 91.6925 885.342 88.3075C895.3 85.1278 905.427 84.4436 915.722 86.2549C932.896 91.38 943.613 92.0073 947.875 88.1368C954.429 84.1113 957.303 82.5657 956.495 83.5002C966.037 80.1939 976.164 79.5097 986.875 81.4475C992.859 79.818 999.34 80.1394 1006.32 82.4118C1013.29 84.6725 1020.4 83.4328 1027.65 78.6928C1037.39 72.2657 1047.51 71.5815 1058.03 76.6401C1066.02 79.3237 1076.14 78.6395 1088.41 74.5875C1095.04 71.634 1101.81 70.8178 1108.72 72.1387C1116.77 74.4748 1123.59 74.3728 1129.18 71.8328C1145.05 71.7612 1155.18 71.077 1159.56 69.7801C1166.87 70.9039 1173.6 69.479 1179.75 65.5057C1186.31 61.5047 1193.17 62.0113 1200.33 67.0254C1209.16 71.1401 1219.29 70.4559 1230.71 64.9728C1240.52 59.599 1250.65 58.9148 1261.1 62.9201C1269.58 66.804 1276.96 67.5472 1283.24 65.1497C1289.91 62.7263 1296.11 61.0649 1301.87 60.1654C1312.81 57.5045 1322.93 56.8203 1332.25 58.1128C1339.26 57.4272 1346.27 58.3711 1353.27 60.9443C1359.62 62.532 1366.2 60.6699 1373.02 55.358C1382.63 47.0229 1392.76 46.3387 1403.4 53.3054C1412.76 58.9486 1422.89 58.2644 1433.78 51.2527C1440.34 47.3201 1447.04 45.474 1453.89 45.7147C1464.58 47.218 1471.47 48.1457 1474.55 48.498C1484.74 50.9057 1494.87 50.2215 1504.93 46.4454C1511.17 44.9603 1517.87 43.1767 1525.05 41.0947C1531.74 39.0457 1538.62 39.911 1545.71 43.6906C1558.26 51.5192 1568.38 50.835 1576.09 41.638C1585.63 32.3168 1595.76 31.6326 1606.47 39.5854C1612.86 43.74 1619.87 44.8049 1627.48 42.78C1634.17 40.817 1640.76 38.8339 1647.24 36.8306C1658.21 32.4036 1668.34 31.7194 1677.62 34.778C1683.94 34.1172 1690.59 34.785 1697.55 36.7812C1703.81 37.9122 1710.75 36.3262 1718.39 32.0232C1728.11 25.3464 1738.24 24.6622 1748.77 29.9706C1761.2 37.1531 1771.33 36.4689 1779.15 27.918" stroke="#312964" stroke-width="1.5"/>
<path d="M57.0052 147.176C63.4278 139.86 70.2194 137.974 77.3801 141.516C83.4002 143.011 90.3846 143.961 98.3334 144.367C108.378 147.138 118.375 146.459 128.325 142.329C135.574 141.451 142.372 139.649 148.717 136.924C155.45 134.173 162.429 135.038 169.653 139.519C177.727 142.618 187.725 141.938 199.645 137.481C209.396 133.171 219.393 132.491 229.637 135.442C242.104 138.039 252.136 138.253 259.733 136.081C266.509 133.966 270.253 132.816 270.965 132.633C283.403 131.988 293.4 131.309 300.957 130.594C306.414 126.848 312.715 126.623 319.858 129.918C325.418 130.529 332.894 129.818 342.285 127.785C352.161 125.314 362.158 124.635 372.277 125.746C397.539 130.154 407.536 129.475 402.269 123.708C408.886 119.251 415.702 117.729 422.718 119.142C428.765 119.713 435.724 120.299 443.597 120.899C451.767 121.043 461.764 120.363 473.589 118.86C480.352 118.474 487.212 117.588 494.167 116.2C500.994 114.821 507.91 114.771 514.917 116.051C529.957 119.922 539.955 119.242 544.909 114.012C554.575 108.462 564.572 107.782 574.9 111.974C581.427 115.08 588.072 114.93 594.836 111.524C601.524 108.123 608.655 107.336 616.229 109.164C625.051 108.481 635.048 107.801 646.22 107.126C658.63 107.865 668.316 108.559 675.28 109.209C684.116 110.802 688.205 109.171 687.549 104.317C697.031 96.0672 707.029 95.3877 717.54 102.278C725.391 105.762 735.389 105.083 747.532 100.239C754.252 97.2994 761.088 96.0674 768.041 96.5434C778.789 98.6045 785.729 98.9001 788.86 97.4301C798.104 96.3646 808.101 95.685 818.852 95.3915C826.661 97.565 833.509 96.5109 839.397 92.2292C846.022 87.8973 852.95 88.015 860.18 92.5823C867.362 94.6769 877.359 93.9974 890.172 90.5437C899.995 87.2933 909.992 86.6138 920.164 88.5051C937.14 93.7823 947.689 94.3266 951.811 90.138C958.434 85.7793 961.662 84.2986 961.492 85.6959C970.908 83.0041 980.906 82.3245 991.484 83.6573C997.584 81.6665 1004.18 81.927 1011.27 84.4386C1018.35 86.9374 1025.53 85.7405 1032.81 80.8481C1042.42 74.3801 1052.41 73.7006 1062.8 78.8094C1070.73 81.5609 1080.73 80.8814 1092.8 76.7708C1099.51 73.6941 1106.37 72.8926 1113.39 74.3663C1121.65 76.9468 1128.56 76.8119 1134.12 73.9616C1149.45 73.4 1159.45 72.7205 1164.12 71.923C1171.59 73.4856 1178.42 72.1162 1184.6 67.8145C1191.22 63.4826 1198.17 63.9157 1205.44 69.1138C1214.1 73.1773 1224.09 72.4978 1235.44 67.0752C1245.12 61.7655 1255.12 61.0859 1265.43 65.0365C1273.98 68.9266 1281.41 69.5803 1287.74 66.9977C1294.48 64.3868 1300.82 62.7966 1306.76 62.2274C1317.69 60.1703 1327.69 59.4908 1336.75 60.1887C1343.81 59.0313 1350.9 59.8725 1358.01 62.7122C1364.41 64.4771 1371.1 62.6995 1378.08 57.3795C1387.57 49.2431 1397.56 48.5635 1408.07 55.3409C1417.18 60.6896 1427.18 60.01 1438.06 53.3023C1444.72 49.4819 1451.52 47.7193 1458.46 48.0145C1469.61 49.6854 1476.58 50.5116 1479.39 50.4931C1489.42 52.3502 1499.41 51.6706 1509.38 48.4545C1515.68 47.2847 1522.49 45.5804 1529.79 43.3416C1536.56 41.1391 1543.53 41.907 1550.71 45.6453C1563.28 53.3944 1573.27 52.7148 1580.7 43.6066C1590.11 34.3632 1600.11 33.6836 1610.69 41.568C1617.08 45.653 1624.16 46.6071 1631.94 44.4304C1638.71 42.3217 1645.41 40.4311 1652.02 38.7588C1663.01 34.9608 1673 34.2813 1682.01 36.7202C1688.43 35.6771 1695.18 36.2607 1702.25 38.471C1708.55 39.7377 1715.58 38.2178 1723.34 33.911C1732.94 27.3948 1742.94 26.7152 1753.33 31.8724C1765.63 38.8825 1775.62 38.203 1783.32 29.8338" stroke="#312964" stroke-width="1.5"/>
<path d="M61.72 149.768C68.2234 142.312 75.114 140.517 82.3917 144.385C88.433 146.034 95.5037 146.874 103.604 146.904C113.496 149.14 123.364 148.466 133.207 144.88C140.607 144.371 147.503 142.656 153.895 139.734C160.706 136.783 167.772 137.543 175.091 142.016C183.285 145.295 193.153 144.62 204.694 139.991C214.3 135.495 224.168 134.82 234.297 137.967C246.35 140.598 256.25 140.752 263.998 138.429C270.856 136.167 274.918 135.059 276.181 135.103C288.73 135.017 298.598 134.342 305.784 133.079C311.395 128.976 317.83 128.724 325.09 132.323C330.632 133.016 338.158 132.313 347.668 130.215C357.412 127.724 367.279 127.049 377.271 128.19C401.602 132.507 411.469 131.832 406.874 126.166C413.582 121.693 420.495 120.238 427.616 121.799C433.685 122.448 440.733 122.949 448.758 123.302C456.919 123.242 466.787 122.567 478.361 121.278C485.216 121.019 492.17 120.153 499.224 118.68C506.137 117.216 513.144 117.127 520.245 118.414C535.518 122.388 545.386 121.713 549.848 116.389C559.374 110.719 569.242 110.044 579.451 114.365C586.118 117.662 592.873 117.48 599.717 113.82C606.48 110.165 613.686 109.392 621.335 111.501C629.943 111.008 639.811 110.333 650.939 109.477C663.035 109.945 672.614 110.546 679.678 111.28C688.769 113.034 693.15 111.479 692.822 106.612C702.186 98.5709 712.054 97.8962 722.426 104.588C730.146 107.938 740.014 107.263 752.029 102.564C758.842 99.6453 765.774 98.4587 772.825 99.0042C783.989 101.265 791.018 101.497 793.912 99.6997C803.051 98.2367 812.919 97.562 823.516 97.6754C831.507 100.241 838.451 99.2195 844.346 94.6112C851.04 89.9483 858.058 90.015 865.399 94.8114C872.506 96.984 882.374 96.3092 895.003 92.787C904.689 89.466 914.557 88.7913 924.606 90.7627C941.384 96.1922 951.765 96.6537 955.747 92.147C962.44 87.4551 966.021 86.039 966.49 87.8986C975.78 85.8214 985.648 85.1466 996.093 85.8743C1002.31 83.5224 1009.02 83.7217 1016.22 86.4724C1023.41 89.2092 1030.66 88.0552 1037.98 83.0103C1047.45 76.5016 1057.31 75.8269 1067.58 80.9859C1075.45 83.8053 1085.31 83.1305 1097.18 78.9616C1103.98 75.7616 1110.94 74.9748 1118.06 76.6011C1126.52 79.4259 1133.52 79.2581 1139.07 76.0976C1153.85 75.0463 1163.72 74.3716 1168.67 74.0732C1176.3 76.0747 1183.23 74.7605 1189.44 70.1305C1196.13 65.4676 1203.17 65.8272 1210.55 71.2092C1219.03 75.2216 1228.9 74.5468 1240.16 69.1848C1249.71 63.9392 1259.58 63.2645 1269.76 67.1605C1278.37 71.0567 1285.86 71.6209 1292.23 68.8532C1299.05 66.0546 1305.52 64.5357 1311.64 64.2964C1322.58 62.8433 1332.44 62.1685 1341.25 62.2721C1348.35 60.6428 1355.52 61.3812 1362.75 64.4874C1369.2 66.4294 1375.99 64.7363 1383.13 59.4081C1392.5 51.4703 1402.37 50.7956 1412.73 57.3838C1421.6 62.4381 1431.47 61.7633 1442.34 55.3594C1449.1 51.6513 1456 49.9721 1463.03 50.3217C1474.63 52.1598 1481.69 52.8843 1484.22 52.4954C1494.09 53.8019 1503.96 53.1271 1513.82 50.471C1520.2 49.6165 1527.1 47.9913 1534.53 45.5957C1541.38 43.2395 1548.44 43.91 1555.71 47.607C1568.3 55.2765 1578.17 54.6018 1585.31 45.5826C1594.6 36.417 1604.47 35.7422 1614.91 43.5583C1621.3 47.5736 1628.46 48.4169 1636.4 46.0883C1643.26 43.8337 1650.06 42.0357 1656.8 40.6943C1667.8 37.5253 1677.66 36.8505 1686.4 38.6699C1692.92 37.2444 1699.77 37.7438 1706.95 40.1681C1713.3 41.5705 1720.41 40.1164 1728.29 35.8059C1737.76 29.4503 1747.63 28.7756 1757.89 33.7816C1770.06 40.6194 1779.92 39.9447 1787.49 31.7572" stroke="#312964" stroke-width="1.5"/>
<path d="M66.4347 152.366C73.0188 144.769 80.0084 143.067 87.4036 147.259C93.4661 149.064 100.623 149.793 108.874 149.447C118.615 151.148 128.353 150.478 138.089 147.437C145.64 147.298 152.634 145.669 159.073 142.549C165.963 139.399 173.115 140.055 180.528 144.518C188.844 147.978 198.582 147.308 209.743 142.508C219.205 137.825 228.943 137.155 238.957 140.499C250.596 143.163 260.364 143.258 268.263 140.784C275.204 138.376 279.582 137.307 281.397 137.579C294.058 138.051 303.796 137.381 310.611 135.569C316.376 131.109 322.946 130.831 330.321 134.735C335.845 135.509 343.422 134.814 353.051 132.65C362.662 130.14 372.401 129.47 382.265 130.64C405.664 134.866 415.402 134.196 411.48 128.631C418.278 124.143 425.289 122.753 432.513 124.461C438.606 125.188 445.741 125.605 453.919 125.711C462.071 125.446 471.809 124.776 483.134 123.702C490.08 123.57 497.128 122.725 504.28 121.166C511.28 119.617 518.378 119.489 525.573 120.782C541.078 124.86 550.817 124.19 554.788 118.772C564.174 112.983 573.912 112.313 584.002 116.763C590.808 120.25 597.673 120.036 604.598 116.122C611.436 112.214 618.717 111.454 626.442 113.843C634.835 113.542 644.573 112.872 655.656 111.834C667.439 112.032 676.912 112.54 684.075 113.358C693.422 115.274 698.096 113.792 698.096 108.914C707.341 101.081 717.079 100.411 727.31 106.905C734.9 110.12 744.638 109.45 756.525 104.895C763.432 101.998 770.461 100.856 777.61 101.471C789.189 103.932 796.307 104.1 798.964 101.975C807.997 100.115 817.735 99.4452 828.179 99.9657C836.354 102.923 843.392 101.934 849.295 96.9995C856.058 92.0055 863.166 92.0211 870.618 97.0463C877.65 99.2971 887.388 98.6272 899.833 95.0366C909.384 91.6451 919.122 90.9752 929.047 93.027C945.629 98.6089 955.841 98.9876 959.683 94.1631C966.444 89.1379 970.379 87.786 971.487 90.1075C980.652 88.6449 990.39 87.975 1000.7 88.0978C1007.04 85.3845 1013.86 85.5227 1021.17 88.5124C1028.47 91.4871 1035.8 90.3758 1043.14 85.1784C1052.47 78.6292 1062.21 77.9593 1072.36 83.1687C1080.16 86.0561 1089.9 85.3862 1101.57 81.1591C1108.45 77.8357 1115.5 77.0635 1122.73 78.8423C1131.4 81.9113 1138.49 81.7104 1144.01 78.2396C1158.25 76.6992 1167.99 76.0293 1173.22 76.23C1181.02 78.6701 1188.04 77.411 1194.28 72.4528C1201.05 67.4588 1208.17 67.7447 1215.66 73.3105C1223.97 77.272 1233.71 76.6021 1244.88 71.3009C1254.31 66.1195 1264.04 65.4496 1274.09 69.2912C1282.77 73.1933 1290.31 73.6681 1296.73 70.7153C1303.63 67.7289 1310.23 66.2811 1316.53 66.3717C1327.46 65.5224 1337.2 64.8525 1345.75 64.3621C1352.9 62.2608 1360.14 62.8964 1367.48 66.2689C1373.99 68.388 1380.89 66.7793 1388.19 61.4426C1397.44 53.7037 1407.18 53.0338 1417.4 59.433C1426.02 64.1932 1435.76 63.5233 1446.62 57.4233C1453.47 53.8273 1460.47 52.2313 1467.61 52.6353C1479.65 54.6403 1486.8 55.2631 1489.05 54.5039C1498.77 55.26 1508.51 54.5901 1518.27 52.4942C1524.71 51.9548 1531.71 50.4087 1539.27 47.8561C1546.2 45.3463 1553.35 45.9191 1560.71 49.5747C1573.32 57.1648 1583.06 56.4949 1589.92 47.5651C1599.08 38.4774 1608.82 37.8075 1619.14 45.5554C1625.51 49.5009 1632.75 50.2333 1640.86 47.7527C1647.8 45.3522 1654.71 43.6467 1661.58 42.636C1672.59 40.096 1682.33 39.4261 1690.79 40.6263C1697.41 38.8183 1704.36 39.2333 1711.65 41.8715C1718.04 43.4096 1725.23 42.0214 1733.23 37.7069C1742.59 31.5121 1752.33 30.8422 1762.45 35.6972C1774.48 42.3629 1784.22 41.693 1791.66 33.6875" stroke="#312964" stroke-width="1.5"/>
<path d="M71.1503 154.97C77.815 147.232 84.9037 145.622 92.4165 150.139C98.5004 152.098 105.743 152.717 114.145 151.995C123.733 153.162 133.342 152.497 142.971 150C150.674 150.23 157.767 148.687 164.251 145.37C171.22 142.02 178.458 142.572 185.966 147.025C194.403 150.666 204.011 150.001 214.792 145.03C224.11 140.161 233.719 139.496 243.618 143.036C254.842 145.734 264.479 145.771 272.528 143.145C279.552 140.59 284.247 139.562 286.613 140.06C299.387 141.09 308.996 140.425 315.439 138.066C321.357 133.249 328.061 132.944 335.553 137.152C341.06 138.007 348.687 137.32 358.434 135.091C367.914 132.561 377.523 131.896 387.26 133.096C409.727 137.232 419.336 136.567 416.086 131.101C422.975 126.598 430.083 125.274 437.412 127.13C443.528 127.934 450.751 128.266 459.081 128.126C467.224 127.656 476.832 126.991 487.907 126.131C494.944 126.127 502.088 125.302 509.336 123.657C516.424 122.023 523.612 121.856 530.902 123.156C546.64 127.336 556.248 126.672 559.728 121.161C568.974 115.252 578.582 114.587 588.554 119.166C595.499 122.844 602.474 122.598 609.48 118.43C616.392 114.268 623.748 113.522 631.549 116.191C639.728 116.081 649.337 115.416 660.375 114.196C671.844 114.125 681.21 114.54 688.473 115.441C698.076 117.518 703.042 116.112 703.37 111.221C712.497 103.596 722.106 102.931 732.196 109.227C739.655 112.308 749.264 111.643 761.022 107.232C768.023 104.356 775.147 103.26 782.395 103.944C794.39 106.604 801.598 106.708 804.017 104.257C812.944 101.999 822.553 101.334 832.843 102.262C841.201 105.611 848.335 104.655 854.245 99.3932C861.077 94.0681 868.274 94.0326 875.838 99.2866C882.794 101.616 892.403 100.951 904.664 97.2919C914.079 93.83 923.688 93.1651 933.49 95.2971C949.874 101.032 959.917 101.328 963.62 96.1856C970.449 90.827 974.738 89.5391 976.485 92.3219C985.526 91.4741 995.134 90.8091 1005.31 90.3272C1011.76 87.2524 1018.7 87.3293 1026.12 90.5579C1033.53 93.7705 1040.93 92.7018 1048.31 87.352C1057.5 80.7623 1067.11 80.0974 1077.13 85.3572C1084.88 88.3126 1094.49 87.6477 1105.96 83.3625C1112.92 79.9157 1120.07 79.158 1127.4 81.0893C1136.28 84.4022 1143.46 84.1682 1148.95 80.3873C1162.65 78.3581 1172.26 77.6932 1177.78 78.3925C1185.74 81.2712 1192.85 80.0672 1199.13 74.7806C1205.96 69.4555 1213.18 69.6678 1220.77 75.4173C1228.91 79.328 1238.52 78.6631 1249.6 73.4226C1258.9 68.3055 1268.51 67.6406 1278.43 71.4279C1287.16 75.336 1294.76 75.7212 1301.22 72.5832C1308.2 69.4091 1314.93 68.0322 1321.42 68.4526C1332.35 68.2072 1341.96 67.5423 1350.25 66.4579C1357.44 63.8847 1364.77 64.4174 1372.22 68.0561C1378.77 70.3523 1385.78 68.8278 1393.24 63.4827C1402.37 55.9427 1411.98 55.2778 1422.07 61.4879C1430.44 65.9543 1440.05 65.2893 1450.89 59.4932C1457.85 56.0093 1464.95 54.4965 1472.18 54.9548C1484.67 57.1262 1491.91 57.6473 1493.89 56.518C1503.45 56.7239 1513.06 56.059 1522.71 54.5233C1529.23 54.299 1536.33 52.832 1544.01 50.1222C1551.03 47.4586 1558.26 47.9339 1565.71 51.548C1578.34 59.0585 1587.95 58.3936 1594.54 49.5533C1603.57 40.5436 1613.18 39.8787 1623.36 47.5586C1629.73 51.4344 1637.05 52.0559 1645.32 49.423C1652.34 46.8766 1659.36 45.2634 1666.36 44.5834C1677.38 42.6724 1686.99 42.0074 1695.18 42.5886C1701.89 40.398 1708.95 40.7287 1716.35 43.5806C1722.79 45.2544 1730.06 43.9319 1738.18 39.6134C1747.41 33.5795 1757.02 32.9146 1767 37.6187C1778.91 44.1124 1788.52 43.4475 1795.83 35.6239" stroke="#312964" stroke-width="1.5"/>
<path d="M75.8662 157.579C82.6114 149.701 89.7993 148.182 97.43 153.024C103.535 155.138 110.864 155.646 119.417 154.548C128.852 155.18 138.331 154.52 147.854 152.568C155.708 153.167 162.9 151.71 169.431 148.196C176.477 144.647 183.802 145.094 191.405 149.537C199.962 153.358 209.442 152.699 219.842 147.558C229.015 142.502 238.494 141.842 248.279 145.578C259.089 148.311 268.594 148.289 276.794 145.511C283.9 142.81 288.912 141.822 291.83 142.547C304.717 144.134 314.196 143.474 320.267 140.567C326.338 135.393 333.177 135.062 340.785 139.573C346.274 140.51 353.952 139.831 363.818 137.536C373.166 134.987 382.645 134.327 392.255 135.556C413.791 139.603 423.27 138.943 420.693 133.577C427.672 129.058 434.878 127.8 442.311 129.803C448.45 130.686 455.761 130.933 464.243 130.545C472.376 129.871 481.855 129.211 492.681 128.566C499.809 128.689 507.047 127.885 514.394 126.153C521.568 124.434 528.847 124.228 536.231 125.534C552.201 129.818 561.68 129.158 564.669 123.555C573.774 117.526 583.253 116.866 593.106 121.575C600.191 125.442 607.276 125.165 614.362 120.743C621.348 116.327 628.78 115.594 636.657 118.544C644.621 118.625 654.1 117.965 665.094 116.564C676.249 116.223 685.508 116.545 692.87 117.53C702.73 119.769 707.988 118.436 708.645 113.533C717.653 106.116 727.132 105.456 737.082 111.553C744.41 114.501 753.889 113.841 765.519 109.574C772.614 106.719 779.835 105.668 787.181 106.422C799.592 109.281 806.888 109.321 809.07 106.543C817.891 103.888 827.37 103.228 837.507 104.563C846.049 108.303 853.279 107.38 859.195 101.792C866.095 96.1357 873.383 96.0489 881.058 101.532C887.938 103.939 897.418 103.279 909.495 99.5521C918.774 96.02 928.253 95.3602 937.932 97.5727C954.119 103.46 963.994 103.674 967.556 98.2138C974.454 92.5218 979.096 91.2976 981.483 94.5412C990.4 94.3082 999.879 93.6484 1009.92 92.5617C1016.49 89.1254 1023.54 89.141 1031.07 92.6084C1038.59 96.0587 1046.06 95.0326 1053.47 89.5302C1062.53 82.9002 1072.01 82.2404 1081.91 87.5508C1089.59 90.5742 1099.07 89.9144 1110.35 85.5713C1117.39 82.0011 1124.63 81.2578 1132.07 83.3414C1141.16 86.8982 1148.43 86.631 1153.9 82.5398C1167.05 80.0224 1176.53 79.3626 1182.33 80.5604C1190.45 83.8774 1197.67 82.7285 1203.97 77.1135C1210.87 71.4572 1218.18 71.5957 1225.88 77.5289C1233.84 81.3889 1243.32 80.7291 1254.32 75.5494C1263.49 70.4968 1272.97 69.837 1282.76 73.57C1291.56 77.4841 1299.21 77.7796 1305.71 74.4564C1312.77 71.0945 1319.64 69.7885 1326.31 70.5385C1337.24 70.8969 1346.71 70.2371 1354.75 68.559C1361.99 65.5138 1369.39 65.9435 1376.95 69.8483C1383.56 72.3216 1390.68 70.8813 1398.3 65.5275C1407.31 58.1866 1416.79 57.5268 1426.73 63.5481C1434.86 67.7207 1444.34 67.0608 1455.17 61.5686C1462.23 58.1967 1469.43 56.767 1476.75 57.2795C1489.69 59.6171 1497.02 60.0363 1498.72 58.5371C1508.12 58.1929 1517.6 57.5331 1527.16 56.5577C1533.75 56.6485 1540.94 55.2604 1548.75 52.3934C1555.85 49.576 1563.17 49.9536 1570.71 53.5262C1583.37 60.9571 1592.84 60.2973 1599.15 51.5467C1608.05 42.6152 1617.53 41.9554 1627.59 49.5673C1633.94 53.3734 1641.34 53.8838 1649.78 51.0987C1656.89 48.4063 1664.01 46.8853 1671.14 46.5358C1682.17 45.2538 1691.65 44.594 1699.57 44.5563C1706.38 41.9831 1713.54 42.2293 1721.05 45.2949C1727.53 47.1042 1734.89 45.8475 1743.12 41.5249C1752.24 35.652 1761.72 34.9921 1771.56 39.5454C1783.34 45.8671 1792.82 45.2073 1800 37.5659" stroke="#312964" stroke-width="1.5"/>
<path d="M80.5819 160.193C87.4075 152.173 94.6947 150.747 102.444 155.914C108.571 158.182 115.986 158.579 124.688 157.105C133.97 157.202 143.319 156.547 152.737 155.141C160.743 156.108 168.034 154.736 174.61 151.026C181.735 147.277 189.146 147.619 196.843 152.053C205.522 156.055 214.871 155.4 224.892 150.089C233.92 144.847 243.27 144.192 252.94 148.125C263.336 150.893 272.709 150.812 281.059 147.882C288.247 145.034 293.576 144.086 297.047 145.037C310.047 147.181 319.397 146.527 325.095 143.073C331.318 137.541 338.292 137.183 346.016 141.999C351.489 143.017 359.217 142.345 369.202 139.985C378.417 137.417 387.767 136.762 397.25 138.021C417.854 141.979 427.204 141.324 425.299 136.057C432.369 131.522 439.672 130.33 447.21 132.481C453.372 133.441 460.771 133.604 469.405 132.969C477.528 132.09 486.878 131.435 497.454 131.005C504.674 131.255 512.007 130.471 519.451 128.654C526.711 126.849 534.081 126.603 541.56 127.917C557.763 132.302 567.112 131.648 569.609 125.953C578.574 119.805 587.923 119.15 597.658 123.989C604.882 128.046 612.078 127.736 619.243 123.06C626.304 118.39 633.81 117.671 641.764 120.901C649.514 121.173 658.864 120.519 669.813 118.937C680.654 118.326 689.806 118.555 697.268 119.624C707.383 122.023 712.934 120.765 713.919 115.849C722.809 108.639 732.159 107.985 741.967 113.885C749.164 116.698 758.514 116.043 770.016 111.921C777.205 109.087 784.522 108.081 791.966 108.904C804.794 111.961 812.179 111.938 814.122 108.833C822.836 105.781 832.186 105.126 842.171 106.869C850.897 111 858.222 110.109 864.145 104.195C871.113 98.2073 878.49 98.0692 886.277 103.781C893.083 106.266 902.432 105.612 914.326 101.817C923.469 98.2144 932.819 97.5597 942.375 99.8528C958.365 105.893 968.07 106.024 971.492 100.247C978.458 94.2215 983.454 93.0607 986.481 96.7646C995.274 97.1466 1004.62 96.4919 1014.53 94.8007C1021.21 91.0028 1028.37 90.9569 1036.02 94.663C1043.65 98.351 1051.19 97.3675 1058.64 91.7125C1067.56 85.0422 1076.91 84.3876 1086.68 89.7487C1094.31 92.8402 1103.66 92.1855 1114.73 87.7848C1121.86 84.091 1129.2 83.362 1136.74 85.598C1146.04 89.3983 1153.4 89.0979 1158.84 84.6966C1171.45 81.6913 1180.8 81.0367 1186.89 82.7327C1195.17 86.488 1202.48 85.394 1208.82 79.4506C1215.79 73.4631 1223.18 73.5278 1230.99 79.6445C1238.78 83.454 1248.13 82.7994 1259.04 77.6806C1268.09 72.6925 1277.44 72.0379 1287.09 75.7168C1295.96 79.6368 1303.66 79.8426 1310.21 76.3342C1317.35 72.7844 1324.34 71.5491 1331.2 72.6286C1342.12 73.5909 1351.47 72.9362 1359.25 70.6647C1366.53 67.1474 1374.01 67.4742 1381.69 71.645C1388.35 74.2952 1395.57 72.9391 1403.35 67.5765C1412.25 60.4347 1421.6 59.7801 1431.4 65.6126C1439.28 69.4917 1448.63 68.8371 1459.45 63.6488C1466.61 60.3888 1473.9 59.0421 1481.33 59.6087C1494.72 62.112 1502.13 62.4293 1503.56 60.5606C1512.8 59.6663 1522.15 59.0117 1531.61 58.5967C1538.26 59.0025 1545.56 57.6933 1553.49 54.669C1560.67 51.6977 1568.08 51.9775 1575.71 55.5085C1588.39 62.8598 1597.74 62.2052 1603.76 53.5446C1612.54 44.6913 1621.89 44.0367 1631.81 51.5807C1638.16 55.3171 1645.64 55.7165 1654.24 52.7789C1661.43 49.9404 1668.65 48.5116 1675.92 48.4926C1686.97 47.8395 1696.32 47.1849 1703.96 46.5287C1710.87 43.5727 1718.13 43.7343 1725.75 47.0136C1732.27 48.9584 1739.72 47.7674 1748.07 43.4405C1757.07 37.7287 1766.42 37.074 1776.12 41.4766C1787.77 47.6265 1797.12 46.9719 1804.17 39.5127" stroke="#312964" stroke-width="1.5"/>
<path d="M85.2984 162.81C92.2042 154.65 99.5908 153.315 107.458 158.807C113.607 161.23 121.108 161.516 129.96 159.665C139.088 159.228 148.308 158.579 157.62 157.717C165.779 159.053 173.169 157.767 179.79 153.859C186.993 149.91 194.49 150.148 202.282 154.572C211.082 158.754 220.302 158.105 229.942 152.624C238.826 147.196 248.046 146.547 257.602 150.676C267.584 153.479 276.825 153.339 285.326 150.258C292.595 147.263 298.241 146.354 302.264 147.53C315.378 150.233 324.598 149.584 329.924 145.582C336.3 139.693 343.408 139.309 351.249 144.428C356.704 145.528 364.483 144.864 374.586 142.437C383.67 139.85 392.89 139.201 402.246 140.489C421.918 144.36 431.138 143.71 429.906 138.541C437.066 133.991 444.467 132.865 452.11 135.162C458.295 136.2 465.781 136.278 474.568 135.396C482.681 134.312 491.901 133.663 502.228 133.448C509.54 133.825 516.967 133.061 524.508 131.158C531.856 129.268 539.316 128.983 546.89 130.302C563.325 134.791 572.545 134.141 574.55 128.354C583.374 122.087 592.594 121.438 602.21 126.407C609.575 130.653 616.88 130.311 624.126 125.381C631.26 120.458 638.842 119.751 646.872 123.261C654.408 123.726 663.628 123.077 674.532 121.313C685.059 120.433 694.103 120.569 701.665 121.722C712.037 124.282 717.88 123.097 719.194 118.168C727.966 111.167 737.186 110.518 746.854 116.22C753.92 118.899 763.14 118.25 774.514 114.272C781.796 111.459 789.209 110.498 796.753 111.39C809.996 114.646 817.47 114.558 819.176 111.127C827.783 107.678 837.003 107.028 846.836 109.179C855.746 113.701 863.167 112.843 869.096 106.602C876.131 100.283 883.599 100.093 891.497 106.033C898.228 108.597 907.448 107.948 919.158 104.085C928.165 100.413 937.385 99.7635 946.818 102.137C962.611 108.33 972.148 108.38 975.429 102.285C982.461 95.926 987.812 94.8283 991.48 98.9919C1000.15 99.9889 1009.37 99.3396 1019.14 97.0439C1025.94 92.8843 1033.21 92.7768 1040.97 96.7216C1048.72 100.647 1056.33 99.7061 1063.8 93.8986C1072.59 87.1881 1081.81 86.5388 1091.46 91.9506C1099.02 95.1103 1108.24 94.4609 1119.12 90.0026C1126.33 86.1852 1133.76 85.4705 1141.41 87.8586C1150.92 91.9025 1158.37 91.5687 1163.78 86.8573C1175.85 83.3646 1185.07 82.7153 1191.44 84.9093C1199.89 89.1027 1207.3 88.0636 1213.67 81.7918C1220.7 75.473 1228.18 75.4637 1236.11 81.7639C1243.72 85.523 1252.94 84.8737 1263.77 79.8159C1272.68 74.8924 1281.9 74.2431 1291.43 77.868C1300.35 81.7939 1308.11 81.91 1314.7 78.2163C1321.92 74.4785 1329.05 73.3139 1336.09 74.7226C1347.01 76.2888 1356.23 75.6395 1363.75 72.7746C1371.07 68.7852 1378.63 69.0089 1386.43 73.4457C1393.14 76.2729 1400.47 75.0008 1408.41 69.6293C1417.19 62.6867 1426.41 62.0374 1436.07 67.6813C1443.7 71.2671 1452.92 70.6178 1463.73 65.7333C1470.99 62.5852 1478.38 61.3214 1485.9 61.9421C1499.74 64.6108 1507.24 64.8261 1508.39 62.588C1517.47 61.1438 1526.69 60.4945 1536.05 60.64C1542.78 61.3607 1550.17 60.1303 1558.23 56.9487C1565.49 53.8234 1572.99 54.0054 1580.71 57.4947C1593.41 64.7664 1602.63 64.117 1608.37 55.5467C1617.02 46.7717 1626.24 46.1224 1636.03 53.5987C1642.38 57.2654 1649.93 57.5537 1658.7 54.4635C1665.97 51.4788 1673.3 50.1421 1680.69 50.4534C1691.76 50.4293 1700.98 49.7799 1708.36 48.5054C1715.36 45.1666 1722.72 45.2436 1730.45 48.7364C1737.02 50.8167 1744.54 49.6913 1753.02 45.36C1761.89 39.8094 1771.11 39.16 1780.68 43.412C1792.2 49.3903 1801.42 48.7409 1808.34 41.4641" stroke="#312964" stroke-width="1.5"/>
<path d="M90.0152 165.432C97.0011 157.13 104.487 155.887 112.473 161.703C118.644 164.281 126.23 164.456 135.232 162.229C144.206 161.257 153.296 160.614 162.504 160.297C170.815 162.001 178.304 160.801 184.971 156.696C192.251 152.547 199.835 152.68 207.721 157.094C216.643 161.457 225.734 160.813 234.993 155.162C243.731 149.548 252.822 148.905 262.264 153.23C271.832 156.069 280.941 155.871 289.592 152.637C296.943 149.496 302.906 148.626 307.482 150.027C320.71 153.287 329.8 152.643 334.753 148.096C341.28 141.849 348.523 141.437 356.481 146.861C361.919 148.042 369.749 147.386 379.97 144.893C388.922 142.287 398.012 141.643 407.242 142.961C425.982 146.745 435.072 146.101 434.513 141.029C441.764 136.463 449.263 135.403 457.01 137.847C463.219 138.963 470.793 138.956 479.731 137.826C487.834 136.538 496.924 135.894 507.002 135.894C514.406 136.398 521.927 135.655 529.566 133.665C537 131.69 544.551 131.365 552.219 132.691C568.887 137.282 577.978 136.638 579.491 130.76C588.175 124.374 597.265 123.73 606.763 128.828C614.268 133.264 621.683 132.89 629.008 127.705C636.215 122.528 643.873 121.835 651.98 125.625C659.303 126.282 668.393 125.638 679.251 123.693C689.464 122.544 698.401 122.587 706.063 123.824C716.691 126.544 722.827 125.433 724.469 120.49C733.124 113.698 742.214 113.054 751.74 118.558C758.675 121.104 767.765 120.46 779.012 116.627C786.388 113.835 793.897 112.919 801.539 113.88C815.199 117.333 822.762 117.181 824.229 113.424C832.729 109.578 841.819 108.934 851.5 111.492C860.596 116.406 868.111 115.579 874.047 109.012C881.15 102.362 888.707 102.121 896.718 108.289C903.373 110.932 912.464 110.288 923.989 106.357C932.86 102.615 941.951 101.971 951.261 104.426C966.857 110.772 976.225 110.739 979.365 104.327C986.465 97.6346 992.169 96.5997 996.478 101.223C1005.02 102.835 1014.12 102.191 1023.75 99.2908C1030.66 94.7693 1038.05 94.6003 1045.92 98.7835C1053.78 102.947 1061.46 102.048 1068.97 96.0878C1077.62 89.3373 1086.72 88.6934 1096.24 94.1561C1103.74 97.3839 1112.83 96.74 1123.51 92.2243C1130.8 88.2832 1138.33 87.5827 1146.08 90.1229C1155.8 94.4101 1163.34 94.0429 1168.73 89.0213C1180.24 85.0418 1189.33 84.3978 1196 87.0896C1204.61 91.721 1212.11 90.7366 1218.51 84.1364C1225.61 77.4863 1233.18 77.403 1241.22 83.8866C1248.66 87.5955 1257.75 86.9516 1268.49 81.9548C1277.28 77.0961 1286.37 76.4521 1295.76 80.0231C1304.75 83.9548 1312.56 83.9811 1319.2 80.1021C1326.49 76.1763 1333.75 75.0823 1340.98 76.8201C1351.9 78.9902 1360.99 78.3462 1368.25 74.8884C1375.62 70.4268 1383.25 70.5474 1391.16 75.2501C1397.93 78.2541 1405.37 77.0659 1413.47 71.6854C1422.12 64.9421 1431.21 64.2982 1440.74 69.7536C1448.12 73.0463 1457.21 72.4024 1468.01 67.8219C1475.37 64.7855 1482.86 63.6046 1490.48 64.2792C1504.77 67.113 1512.35 67.2262 1513.23 64.6189C1522.15 62.625 1531.24 61.9811 1540.5 62.6871C1547.3 63.7228 1554.79 62.571 1562.97 59.2319C1570.32 55.9526 1577.9 56.0367 1585.71 59.4842C1598.43 66.6763 1607.52 66.0323 1612.99 57.5524C1621.51 48.8559 1630.6 48.212 1640.26 55.6206C1646.59 59.2177 1654.23 59.3947 1663.16 56.1518C1670.52 53.021 1677.95 51.7762 1685.47 52.4177C1696.56 53.0225 1705.65 52.3786 1712.75 50.4859C1719.84 46.7642 1727.31 46.7565 1735.15 50.4627C1741.76 52.6786 1749.37 51.6186 1757.96 47.283C1766.72 41.8936 1775.81 41.2497 1785.23 45.3512C1796.63 51.1578 1805.72 50.5139 1812.51 43.4194" stroke="#312964" stroke-width="1.5"/>
<path d="M94.7322 168.056C101.798 159.614 109.384 158.462 117.489 164.602C123.681 167.335 131.354 167.399 140.505 164.795C149.324 163.29 158.285 162.651 167.388 162.88C175.852 164.953 183.44 163.838 190.152 159.536C197.51 155.187 205.179 155.215 213.16 159.619C222.204 164.162 231.165 163.523 240.044 157.704C248.637 151.904 257.598 151.266 266.927 155.788C276.08 158.662 285.057 158.406 293.858 155.021C301.291 151.732 307.571 150.901 312.699 152.527C326.042 156.345 335.003 155.706 339.582 150.612C346.261 144.008 353.639 143.569 361.714 149.296C367.135 150.558 375.015 149.91 385.355 147.351C394.174 144.727 403.135 144.088 412.238 145.436C430.046 149.134 439.007 148.495 439.121 143.521C446.462 138.939 454.059 137.944 461.911 140.536C468.143 141.729 475.804 141.637 484.894 140.26C492.986 138.767 501.947 138.128 511.777 138.344C519.272 138.975 526.888 138.252 534.625 136.176C542.145 134.115 549.787 133.751 557.549 135.083C574.45 139.776 583.411 139.137 584.432 133.168C592.975 126.663 601.936 126.025 611.315 131.253C618.961 135.879 626.486 135.472 633.891 130.033C641.171 124.602 648.904 123.922 657.088 127.992C664.197 128.841 673.158 128.202 683.971 126.077C693.869 124.659 702.699 124.609 710.46 125.929C721.346 128.81 727.773 127.772 729.744 122.816C738.281 116.232 747.242 115.593 756.627 120.9C763.43 123.313 772.391 122.674 783.51 118.985C790.98 116.214 798.585 115.343 806.326 116.373C820.403 120.024 828.055 119.808 829.282 115.724C837.675 111.482 846.636 110.843 856.165 113.809C865.446 119.114 873.057 118.319 878.998 111.425C886.168 104.444 893.815 104.151 901.938 110.548C908.518 113.269 917.479 112.63 928.821 108.633C937.556 104.82 946.517 104.182 955.704 106.717C971.104 113.217 980.303 113.103 983.301 106.373C990.468 99.3471 996.527 98.3748 1001.48 103.456C1009.9 105.684 1018.86 105.045 1028.36 101.541C1035.39 96.6578 1042.89 96.4269 1050.87 100.849C1058.84 105.249 1066.59 104.393 1074.13 98.2801C1082.66 91.4897 1091.62 90.8512 1101.02 96.3649C1108.46 99.661 1117.42 99.0226 1127.9 94.4496C1135.28 90.3847 1142.89 89.6984 1150.75 92.3907C1160.68 96.9209 1168.31 96.5203 1173.67 91.1886C1184.64 86.7225 1193.6 86.0841 1200.55 89.2734C1209.33 94.3427 1216.93 93.413 1223.36 86.4843C1230.53 79.5028 1238.18 79.3454 1246.33 86.0123C1253.6 89.6711 1262.56 89.0327 1273.21 84.0971C1281.87 79.3032 1290.84 78.6647 1300.09 82.1819C1309.15 86.1193 1317.01 86.0559 1323.69 81.9915C1331.06 77.8775 1338.46 76.854 1345.87 78.9208C1356.79 81.6948 1365.75 81.0563 1372.75 77.0056C1380.16 72.0719 1387.87 72.0893 1395.9 77.0577C1402.72 80.2386 1410.26 79.1343 1418.52 73.7446C1427.06 67.2007 1436.02 66.5623 1445.4 71.8294C1452.54 74.8291 1461.5 74.1907 1472.29 69.9141C1479.75 66.9894 1487.34 65.8913 1495.05 66.6198C1509.79 69.6182 1517.46 69.6294 1518.06 66.6531C1526.82 64.1096 1535.79 63.4711 1544.94 64.7379C1551.81 66.0883 1559.4 65.0152 1567.72 61.5184C1575.14 58.0851 1582.81 58.0712 1590.72 61.4768C1603.45 68.5893 1612.42 67.9509 1617.6 59.5616C1625.99 50.9437 1634.95 50.3053 1644.48 57.6464C1650.81 61.1737 1658.52 61.2395 1667.62 57.8437C1675.06 54.5666 1682.6 53.4138 1690.25 54.3853C1701.35 55.6191 1710.31 54.9807 1717.14 52.4701C1724.33 48.3654 1731.9 48.2729 1739.84 52.1925C1746.51 54.5437 1754.2 53.5493 1762.91 49.2091C1771.54 43.9811 1780.5 43.3427 1789.79 47.2939C1801.05 52.9289 1810.01 52.2905 1816.68 45.3786" stroke="#312964" stroke-width="1.5"/>
<path d="M99.4489 170.684C106.595 162.1 114.28 161.04 122.504 167.505C128.719 170.392 136.477 170.345 145.777 167.364C154.441 165.325 163.272 164.692 172.271 165.466C180.888 167.907 188.575 166.877 195.333 162.378C202.768 157.83 210.524 157.752 218.599 162.146C227.765 166.869 236.596 166.236 245.094 160.248C253.542 154.263 262.373 153.63 271.588 158.349C280.327 161.259 289.173 160.945 298.124 157.407C305.638 153.972 312.236 153.18 317.916 155.03C331.375 159.405 340.206 158.772 344.411 153.131C351.242 146.169 358.753 145.703 366.946 151.734C372.35 153.078 380.281 152.437 390.739 149.812C399.426 147.169 408.258 146.536 417.234 147.914C434.109 151.526 442.941 150.893 443.728 146.015C451.16 141.417 458.854 140.488 466.811 143.227C473.067 144.498 480.815 144.321 490.056 142.696C498.139 140.998 506.97 140.365 516.551 140.797C524.138 141.555 531.849 140.852 539.682 138.689C547.29 136.543 555.022 136.139 562.879 137.478C580.012 142.272 588.844 141.639 589.373 135.579C597.775 128.955 606.607 128.323 615.868 133.681C623.653 138.496 631.288 138.057 638.773 132.363C646.126 126.679 653.934 126.011 662.196 130.361C669.091 131.403 677.923 130.77 688.69 128.463C698.273 126.776 706.996 126.635 714.857 128.038C725.999 131.078 732.72 130.114 735.018 125.143C743.438 118.768 752.27 118.135 761.513 123.245C768.184 125.524 777.016 124.891 788.007 121.347C795.571 118.596 803.273 117.77 811.113 118.869C825.606 122.717 833.347 122.437 834.335 118.027C842.62 113.388 851.451 112.755 860.83 116.129C870.296 121.824 878.002 121.062 883.949 113.841C891.186 106.528 898.922 106.184 907.158 112.809C913.663 115.609 922.495 114.976 933.652 110.911C942.251 107.029 951.082 106.396 960.147 109.012C975.35 115.666 984.38 115.469 987.237 108.423C994.471 101.063 1000.88 100.153 1006.47 105.693C1014.78 108.536 1023.61 107.903 1032.97 103.794C1040.11 98.5491 1047.73 98.2565 1055.82 102.917C1063.9 107.554 1071.73 106.74 1079.3 100.475C1087.68 93.6447 1096.52 93.0119 1105.79 98.5766C1113.17 101.941 1122 101.308 1132.29 96.6782C1139.75 92.4895 1147.46 91.8172 1155.42 94.6614C1165.56 99.4346 1173.29 99.0004 1178.61 93.3587C1189.04 88.4065 1197.87 87.7737 1205.11 91.4603C1214.05 96.9673 1221.75 96.0923 1228.2 88.8351C1235.44 81.5221 1243.19 81.2906 1251.44 88.1407C1258.53 91.7495 1267.36 91.1167 1277.93 86.2423C1286.47 81.5133 1295.3 80.8805 1304.43 84.3439C1313.54 88.2871 1321.46 88.1338 1328.18 83.8841C1335.63 79.5819 1343.16 78.6287 1350.75 81.0244C1361.68 84.4022 1370.51 83.7694 1377.25 79.126C1384.7 73.7201 1392.49 73.6342 1400.63 78.8683C1407.51 82.2261 1415.16 81.2055 1423.58 75.8065C1432 69.4621 1440.83 68.8293 1450.07 73.9081C1456.96 76.6151 1465.79 75.9823 1476.57 72.0097C1484.12 69.1966 1491.81 68.1811 1499.63 68.9634C1514.82 72.1262 1522.57 72.0351 1522.89 68.6902C1531.5 65.5971 1540.33 64.9643 1549.39 66.7918C1556.33 68.457 1564.02 67.4624 1572.46 63.8079C1579.96 60.2204 1587.71 60.1085 1595.72 63.4722C1608.48 70.505 1617.31 69.8722 1622.21 61.5738C1630.48 53.0346 1639.31 52.4018 1648.71 59.6754C1655.03 63.1331 1662.82 63.0876 1672.08 59.5388C1679.6 56.1153 1687.25 55.0543 1695.03 56.3559C1706.15 58.2186 1714.98 57.5858 1721.53 54.4575C1728.81 49.9698 1736.49 49.7924 1744.54 53.9252C1751.25 56.4119 1759.02 55.4828 1767.86 51.138C1776.37 46.0714 1785.2 45.4386 1794.35 49.2396C1805.48 54.7033 1814.31 54.0705 1820.84 47.3412" stroke="#312964" stroke-width="1.5"/>
<path d="M104.166 173.314C111.392 164.589 119.177 163.621 127.52 170.409C133.758 173.451 141.601 173.293 151.05 169.935C159.558 167.362 168.26 166.735 177.156 168.054C185.926 170.863 193.712 169.919 200.515 165.222C208.027 160.474 215.869 160.292 224.039 164.676C233.327 169.579 242.029 168.952 250.145 162.794C258.448 156.624 267.15 155.997 276.251 160.913C284.576 163.86 293.289 163.487 302.39 159.797C309.986 156.215 316.901 155.461 323.134 157.535C336.708 162.467 345.41 161.839 349.24 155.653C356.222 148.333 363.868 147.84 372.179 154.174C377.566 155.6 385.548 154.966 396.124 152.275C404.679 149.613 413.381 148.986 422.23 150.394C438.174 153.922 446.876 153.294 448.336 148.512C455.858 143.899 463.65 143.035 471.712 145.92C477.992 147.269 485.827 147.007 495.219 145.134C503.291 143.232 511.993 142.605 521.325 143.253C529.005 144.137 536.81 143.454 544.741 141.205C552.435 138.973 560.257 138.529 568.209 139.874C585.575 144.77 594.277 144.143 594.315 137.993C602.576 131.25 611.278 130.623 620.421 136.112C628.347 141.117 636.092 140.645 643.655 134.696C651.082 128.758 658.965 128.103 667.304 132.733C673.986 133.967 682.688 133.34 693.41 130.852C702.678 128.897 711.293 128.663 719.255 130.15C730.654 133.35 737.667 132.458 740.293 127.474C748.596 121.307 757.298 120.68 766.399 125.592C772.939 127.738 781.641 127.111 792.505 123.711C800.163 120.981 807.961 120.2 815.9 121.367C830.81 125.413 838.64 125.068 839.389 120.333C847.565 115.297 856.267 114.67 865.495 118.451C875.147 124.538 882.948 123.807 888.9 116.26C896.204 108.616 904.03 108.22 912.378 115.073C918.809 117.951 927.511 117.324 938.484 113.192C946.947 109.24 955.649 108.613 964.59 111.31C979.597 118.117 988.458 117.839 991.173 110.476C998.473 102.783 1005.24 101.934 1011.47 107.932C1019.66 111.39 1028.36 110.763 1037.58 106.051C1044.83 100.443 1052.57 100.089 1060.77 104.987C1068.96 109.862 1076.86 109.09 1084.46 102.672C1092.72 95.8022 1101.42 95.1751 1110.57 100.791C1117.89 104.224 1126.59 103.597 1136.67 98.9097C1144.22 94.5971 1152.03 93.9388 1160.1 96.9348C1170.44 101.951 1178.26 101.483 1183.56 95.5312C1193.43 90.0934 1202.14 89.4663 1209.66 93.6499C1218.77 99.5946 1226.56 98.7741 1233.05 91.1884C1240.35 83.5439 1248.19 83.2382 1256.55 90.2714C1263.47 93.8304 1272.17 93.2034 1282.65 88.3902C1291.06 83.7262 1299.77 83.0991 1308.76 86.509C1317.94 90.4578 1325.91 90.2146 1332.68 85.7795C1340.21 81.2891 1347.86 80.4061 1355.64 83.1305C1366.57 87.1121 1375.27 86.4851 1381.75 81.2492C1389.24 75.3711 1397.12 75.1819 1405.37 80.6816C1412.3 84.2161 1420.05 83.2792 1428.63 77.8708C1436.94 71.726 1445.64 71.0989 1454.74 75.9895C1461.38 78.4041 1470.08 77.777 1480.84 74.1083C1488.5 71.4066 1496.29 70.4738 1504.21 71.3099C1519.84 74.6366 1527.68 74.4432 1527.73 70.7298C1536.17 67.0874 1544.87 66.4603 1553.83 68.8485C1560.85 70.8285 1568.64 69.9123 1577.2 66.1001C1584.78 62.3583 1592.62 62.1483 1600.72 65.4701C1613.5 72.4232 1622.2 71.7961 1626.82 63.5888C1634.96 55.1283 1643.66 54.5012 1652.93 61.7076C1659.24 65.0956 1667.11 64.9387 1676.54 61.2368C1684.14 57.6669 1691.9 56.6976 1699.81 58.3291C1710.94 60.8207 1719.64 60.1936 1725.92 56.4479C1733.3 51.577 1741.07 51.3146 1749.24 55.6606C1756 58.2826 1763.85 57.4189 1772.8 53.0694C1781.2 48.1644 1789.9 47.5373 1798.91 51.1881C1809.91 56.4805 1818.61 55.8534 1825.01 49.3069" stroke="#312964" stroke-width="1.5"/>
<path d="M108.884 175.947C116.189 167.081 124.074 166.204 132.537 173.316C138.797 176.512 146.725 176.243 156.323 172.509C164.675 169.402 173.247 168.781 182.04 170.645C190.964 173.822 198.85 172.964 205.697 168.069C213.287 163.121 221.214 162.834 229.479 167.207C238.888 172.29 247.461 171.669 255.196 165.343C263.353 158.987 271.926 158.366 280.914 163.479C288.825 166.463 297.406 166.033 306.656 162.189C314.334 158.46 321.566 157.744 328.353 160.042C342.043 165.531 350.615 164.909 354.07 158.178C361.203 150.499 368.983 149.979 377.412 156.617C382.782 158.123 390.814 157.498 401.509 154.74C409.932 152.06 418.505 151.438 427.226 152.876C442.238 156.32 450.81 155.699 452.944 151.012C460.556 146.383 468.446 145.584 476.614 148.616C482.917 150.043 490.84 149.695 500.382 147.574C508.444 145.468 517.016 144.846 526.1 145.711C533.872 146.721 541.772 146.059 549.8 143.723C557.58 141.405 565.493 140.922 573.539 142.273C591.139 147.27 599.711 146.649 599.256 140.409C607.377 133.548 615.949 132.927 624.974 138.545C633.041 143.739 640.896 143.235 648.538 137.032C656.037 130.839 663.995 130.198 672.412 135.107C678.882 136.534 687.454 135.912 698.13 133.244C707.083 131.021 715.59 130.694 723.652 132.264C735.308 135.624 742.614 134.805 745.569 129.806C753.754 123.848 762.327 123.227 771.286 127.942C777.694 129.954 786.267 129.333 797.004 126.078C804.755 123.369 812.65 122.632 820.687 123.868C836.015 128.11 843.933 127.701 844.442 122.64C852.51 117.208 861.083 116.586 870.16 120.777C879.998 127.253 887.895 126.555 893.852 118.681C901.222 110.705 909.137 110.257 917.599 117.339C923.955 120.296 932.527 119.674 943.316 115.475C951.642 111.454 960.215 110.833 969.034 113.611C983.844 120.572 992.536 120.212 995.109 112.532C1002.48 104.505 1009.6 103.719 1016.47 110.173C1024.53 114.247 1033.11 113.626 1042.19 108.309C1049.56 102.34 1057.4 101.923 1065.72 107.06C1074.03 112.172 1081.99 111.442 1089.63 104.871C1097.75 97.9619 1106.32 97.3406 1115.35 103.008C1122.61 106.509 1131.18 105.888 1141.06 101.144C1148.69 96.7074 1156.59 96.063 1164.77 99.2108C1175.32 104.469 1183.23 103.968 1188.5 97.7061C1197.83 91.7831 1206.4 91.1618 1214.22 95.8423C1223.49 102.224 1231.38 101.458 1237.9 93.5441C1245.27 85.568 1253.19 85.1881 1261.66 92.4044C1268.41 95.9137 1276.98 95.2925 1287.38 90.5406C1295.66 85.9418 1304.23 85.3205 1313.09 88.6768C1322.34 92.6313 1330.36 92.2982 1337.17 87.6775C1344.78 82.9989 1352.57 82.186 1360.53 85.2389C1371.46 89.8245 1380.03 89.2032 1386.25 83.3752C1393.78 77.0248 1401.73 76.7322 1410.1 82.4974C1417.09 86.2086 1424.95 85.3552 1433.69 79.9373C1441.87 73.9922 1450.45 73.3709 1459.41 78.0735C1465.8 80.1958 1474.37 79.5745 1485.12 76.2098C1492.88 73.6195 1500.77 72.7693 1508.78 73.6589C1524.87 77.1493 1532.79 76.8536 1532.56 72.7718C1540.85 68.5802 1549.42 67.9589 1558.28 70.9081C1565.37 73.2027 1573.25 72.3649 1581.94 68.3947C1589.61 64.4987 1597.53 64.1905 1605.72 67.4702C1618.52 74.3436 1627.09 73.7223 1631.44 65.6064C1639.45 57.2247 1648.02 56.6035 1657.15 63.7426C1663.46 67.061 1671.41 66.7926 1681 62.9375C1688.68 59.2211 1696.54 58.3435 1704.59 60.3047C1715.74 63.4252 1724.31 62.804 1730.31 58.441C1737.78 53.1869 1745.66 52.8394 1753.94 57.3986C1760.74 60.1559 1768.68 59.3574 1777.75 55.0031C1786.02 50.2597 1794.59 49.6385 1803.47 53.1393C1814.34 58.2605 1822.91 57.6392 1829.18 51.2755" stroke="#312964" stroke-width="1.5"/>
<path d="M113.602 178.582C120.987 169.574 128.971 168.789 137.554 176.225C143.837 179.576 151.85 179.196 161.596 175.084C169.791 171.443 178.234 170.828 186.925 173.238C196.003 176.783 203.988 176.01 210.88 170.918C218.546 165.77 226.559 165.377 234.919 169.74C244.451 175.003 252.894 174.388 260.248 167.894C268.259 161.353 276.702 160.737 285.577 166.048C293.074 169.069 301.522 168.581 310.923 164.585C318.682 160.708 326.231 160.03 333.571 162.55C347.377 168.597 355.82 167.981 358.9 160.704C366.183 152.668 374.098 152.12 382.645 159.061C387.998 160.649 396.081 160.031 406.894 157.207C415.185 154.508 423.628 153.893 432.223 155.361C446.302 158.722 454.745 158.106 457.552 153.515C465.255 148.869 473.243 148.135 481.516 151.314C487.843 152.818 495.853 152.386 505.546 150.017C513.596 147.706 522.039 147.09 530.875 148.171C538.739 149.308 546.734 148.665 554.859 146.243C562.725 143.839 570.728 143.316 578.869 144.673C596.702 149.772 605.145 149.156 604.198 142.827C612.177 135.848 620.62 135.232 629.527 140.981C637.735 146.364 645.7 145.827 653.42 139.369C660.992 132.923 669.026 132.294 677.521 137.483C683.777 139.103 692.22 138.487 702.85 135.638C711.487 133.147 719.887 132.728 728.049 134.381C739.962 137.9 747.561 137.153 750.844 132.14C758.913 126.391 767.356 125.775 776.173 130.294C782.449 132.173 790.893 131.557 801.502 128.448C809.348 125.759 817.339 125.067 825.475 126.372C841.22 130.81 849.227 130.336 849.496 124.95C857.455 119.121 865.898 118.506 874.825 123.104C884.849 129.971 892.842 129.304 898.804 121.104C906.24 112.796 914.245 112.297 922.819 119.606C929.1 122.642 937.543 122.027 948.148 117.76C956.338 113.67 964.781 113.055 973.477 115.914C988.092 123.029 996.614 122.588 999.045 114.592C1006.48 106.23 1013.95 105.505 1021.47 112.417C1029.41 117.106 1037.85 116.491 1046.8 110.571C1054.28 104.239 1062.24 103.76 1070.67 109.135C1079.09 114.484 1087.13 113.796 1094.79 107.073C1102.78 100.124 1111.22 99.5084 1120.12 105.227C1127.32 108.796 1135.77 108.181 1145.45 103.381C1153.16 98.8202 1161.16 98.1897 1169.44 101.489C1180.2 106.99 1188.2 106.455 1193.45 99.8831C1202.23 93.4754 1210.67 92.86 1218.78 98.0371C1228.21 104.857 1236.2 104.145 1242.74 95.9021C1250.18 87.5944 1258.19 87.1401 1266.77 94.5393C1273.35 97.9991 1281.79 97.3838 1292.1 92.6933C1300.26 88.1597 1308.7 87.5444 1317.43 90.8474C1326.73 94.8073 1334.81 94.3843 1341.66 89.5782C1349.35 84.7111 1357.27 83.9682 1365.42 87.3496C1376.35 92.539 1384.8 91.9237 1390.75 85.5036C1398.33 78.6809 1406.35 78.2849 1414.84 84.3155C1421.88 88.2034 1429.85 87.4335 1438.74 82.0058C1446.81 76.2605 1455.26 75.6452 1464.07 80.1599C1470.21 81.99 1478.66 81.3747 1489.4 78.3139C1497.26 75.835 1505.25 75.0672 1513.36 76.0105C1529.89 79.664 1537.91 79.2659 1537.4 74.8161C1545.52 70.0754 1553.96 69.46 1562.73 72.9701C1569.88 75.5793 1577.87 74.8198 1586.68 70.6917C1594.43 66.6413 1602.44 66.2348 1610.72 69.4724C1623.54 76.2661 1631.98 75.6508 1636.05 67.6264C1643.93 59.3237 1652.37 58.7084 1661.38 65.7804C1667.68 69.0292 1675.7 68.6492 1685.46 64.6407C1693.22 60.7777 1701.19 59.9917 1709.37 62.2826C1720.54 66.032 1728.98 65.4167 1734.7 60.4367C1742.27 54.7993 1750.25 54.3667 1758.64 59.1388C1765.49 62.0314 1773.5 61.2981 1782.69 56.9389C1790.85 52.3573 1799.29 51.742 1808.02 55.0929C1818.76 60.043 1827.21 59.4277 1833.35 53.2469" stroke="#312964" stroke-width="1.5"/>
<path d="M118.319 181.219C125.784 172.07 133.868 171.376 142.571 179.136C148.876 182.642 156.975 182.15 166.868 177.661C174.907 173.487 183.221 172.877 191.809 175.833C201.041 179.746 209.126 179.057 216.063 173.768C223.806 168.42 231.904 167.922 240.358 172.275C250.013 177.717 258.326 177.108 265.299 170.447C273.164 163.72 281.477 163.111 290.239 168.619C297.322 171.677 305.639 171.131 315.188 166.982C323.029 162.959 330.895 162.318 338.789 165.061C352.712 171.664 361.026 171.055 363.729 163.233C371.163 154.838 379.212 154.262 387.878 161.507C393.214 163.177 401.348 162.566 412.278 159.675C420.437 156.958 428.751 156.349 437.219 157.847C450.366 161.126 458.679 160.516 462.16 156.019C469.953 151.357 478.039 150.689 486.418 154.014C492.768 155.596 500.865 155.078 510.709 152.461C518.748 149.945 527.062 149.336 535.649 150.633C543.606 151.897 551.695 151.274 559.917 148.765C567.87 146.275 575.964 145.712 584.199 147.075C602.265 152.275 610.578 151.665 609.139 145.247C616.977 138.149 625.291 137.54 634.08 143.419C642.429 148.991 650.503 148.421 658.303 141.709C665.946 135.008 674.055 134.392 682.629 139.861C688.672 141.673 696.986 141.064 707.569 138.033C715.891 135.276 724.183 134.765 732.445 136.5C744.616 140.179 752.507 139.504 756.119 134.475C764.071 128.935 772.384 128.326 781.059 132.647C787.204 134.393 795.517 133.784 806 130.82C813.939 128.151 822.027 127.504 830.262 128.877C846.424 133.511 854.52 132.972 854.549 127.262C862.399 121.036 870.713 120.427 879.49 125.434C889.701 132.691 897.789 132.056 903.755 123.529C911.257 114.89 919.352 114.339 928.039 121.876C934.246 124.99 942.559 124.381 952.979 120.048C961.033 115.888 969.346 115.279 977.92 118.22C992.339 125.489 1000.69 124.967 1002.98 116.654C1010.48 107.958 1018.31 107.294 1026.47 114.662C1034.29 119.967 1042.6 119.358 1051.41 112.834C1059.01 106.14 1067.08 105.599 1075.62 111.211C1084.15 116.797 1092.26 116.152 1099.96 109.276C1107.81 102.287 1116.12 101.678 1124.9 107.448C1132.04 111.086 1140.35 110.477 1149.84 105.62C1157.63 100.935 1165.72 100.318 1174.11 103.77C1185.08 109.513 1193.17 108.944 1198.39 102.062C1206.62 95.1699 1214.94 94.5606 1223.33 100.234C1232.93 107.491 1241.02 106.833 1247.59 98.2619C1255.09 89.6226 1263.19 89.0939 1271.88 96.676C1278.28 100.086 1286.6 99.4771 1296.82 94.8481C1304.85 90.3798 1313.16 89.7705 1321.76 93.0202C1331.13 96.9857 1339.26 96.4726 1346.15 91.481C1353.92 86.4255 1361.97 85.7525 1370.31 89.4621C1381.24 95.2554 1389.56 94.6461 1395.25 87.6343C1402.87 80.3392 1410.97 79.8397 1419.57 86.1356C1426.66 90.2001 1434.74 89.5136 1443.8 84.0762C1451.75 78.5307 1460.06 77.9214 1468.74 82.2483C1474.63 83.7866 1482.94 83.1773 1493.68 80.4204C1501.64 78.0528 1509.73 77.3674 1517.93 78.3641C1534.92 82.1805 1543.02 81.6799 1542.23 76.8623C1550.19 71.5726 1558.5 70.9633 1567.17 75.0345C1574.4 77.9582 1582.49 77.2769 1591.43 72.9906C1599.25 68.7858 1607.35 68.2811 1615.72 71.4764C1628.56 78.1904 1636.88 77.5811 1640.66 69.6485C1648.42 61.4249 1656.73 60.8156 1665.6 67.8206C1671.89 70.9997 1680 70.5082 1689.92 66.3461C1697.76 62.3366 1705.84 61.642 1714.15 64.2625C1725.33 68.6408 1733.65 68.0315 1739.09 62.4347C1746.75 56.4139 1754.84 55.8961 1763.34 60.8812C1770.23 63.909 1778.33 63.2408 1787.64 58.8766C1795.67 54.4568 1803.99 53.8475 1812.58 57.0487C1823.19 61.8278 1831.5 61.2185 1837.52 55.2208" stroke="#312964" stroke-width="1.5"/>
</g>
</g>
<defs>
<filter id="filter0_d_951_34698" x="-0.0371094" y="4.65955" width="1865.25" height="210.496" filterUnits="userSpaceOnUse" color-interpolation-filters="sRGB">
<feFlood flood-opacity="0" result="BackgroundImageFix"/>
<feColorMatrix in="SourceAlpha" type="matrix" values="0 0 0 0 0 0 0 0 0 0 0 0 0 0 0 0 0 0 127 0" result="hardAlpha"/>
<feOffset dx="13" dy="20"/>
<feGaussianBlur stdDeviation="5"/>
<feComposite in2="hardAlpha" operator="out"/>
<feColorMatrix type="matrix" values="0 0 0 0 0.192157 0 0 0 0 0.160784 0 0 0 0 0.392157 0 0 0 0.5 0"/>
<feBlend mode="normal" in2="BackgroundImageFix" result="effect1_dropShadow_951_34698"/>
<feBlend mode="normal" in="SourceGraphic" in2="effect1_dropShadow_951_34698" result="shape"/>
</filter>
<clipPath id="clip0_951_34698">
<rect width="1712" height="223" fill="white"/>
</clipPath>
</defs>
</svg>
