<svg width="855" height="163" viewBox="0 0 855 163" fill="none" xmlns="http://www.w3.org/2000/svg">
<g filter="url(#filter0_d_861_479)">
<rect width="662.269" height="10" rx="5" transform="matrix(0.997909 -0.0646292 0.896529 0.442984 170.884 128.125)" fill="#B1AEAE"/>
<rect width="662.269" height="10" rx="5" transform="matrix(0.997909 -0.0646292 0.896529 0.442984 170.884 128.125)" fill="#B1AEAE"/>
<rect width="662.269" height="10" rx="5" transform="matrix(0.997909 -0.0646292 0.896529 0.442984 170.885 126.017)" fill="#D9D9D9"/>
<rect width="670.509" height="10" rx="5" transform="matrix(1.12853 0.00710307 0.725258 0.447617 20.1562 52.7395)" fill="#ADACAC"/>
<rect width="670.509" height="10" rx="5" transform="matrix(1.12853 0.00710306 0.725258 0.447617 20.1562 50.7987)" fill="#D9D9D9"/>
<rect width="34.4128" height="105" rx="9" transform="matrix(0.997909 -0.0646292 -0.896529 -0.442984 805.342 97.1134)" fill="#722F9D"/>
<rect width="34" height="112.725" rx="9" transform="matrix(0.997909 -0.0646292 -0.896529 -0.442984 763.038 99.8533)" fill="#1E60A0"/>
<rect width="34" height="120.386" rx="9" transform="matrix(0.997909 -0.0646292 -0.896529 -0.442984 720.734 102.593)" fill="#268995"/>
<rect width="34" height="127.877" rx="9" transform="matrix(0.997909 -0.0646292 -0.896529 -0.442984 678.43 105.333)" fill="#548F28"/>
<rect width="34" height="135.368" rx="9" transform="matrix(0.997909 -0.0646292 -0.896529 -0.442984 636.126 108.073)" fill="#B8A632"/>
<rect width="34" height="142.859" rx="9" transform="matrix(0.997909 -0.0646292 -0.896529 -0.442984 593.822 110.812)" fill="#B57E41"/>
<rect width="34" height="150.35" rx="9" transform="matrix(0.997909 -0.0646292 -0.896529 -0.442984 551.518 113.552)" fill="#B8403F"/>
<rect width="34" height="157.841" rx="9" transform="matrix(0.997909 -0.0646292 -0.896529 -0.442984 509.214 116.292)" fill="#B03873"/>
<rect width="34" height="165.486" rx="9" transform="matrix(0.997909 -0.0646292 -0.896529 -0.442984 466.91 119.032)" fill="#722F9D"/>
<rect width="34" height="172.97" rx="9" transform="matrix(0.997909 -0.0646292 -0.896529 -0.442984 424.606 121.772)" fill="#1E60A0"/>
<rect width="34" height="180.454" rx="9" transform="matrix(0.997909 -0.0646292 -0.896529 -0.442984 382.302 124.511)" fill="#268995"/>
<rect width="34" height="187.937" rx="9" transform="matrix(0.997909 -0.0646292 -0.896529 -0.442984 339.998 127.251)" fill="#548F28"/>
<rect width="34" height="195.442" rx="9" transform="matrix(0.997909 -0.0646292 -0.896529 -0.442984 297.694 129.991)" fill="#B8A632"/>
<rect width="34" height="202.936" rx="9" transform="matrix(0.997909 -0.0646292 -0.896529 -0.442984 255.39 132.731)" fill="#B57E41"/>
<path d="M204.519 131.516C208.975 133.718 216.608 135.243 221.569 134.921L238.034 133.855C242.994 133.534 243.402 131.488 238.946 129.286L66.8123 44.2335C62.3561 42.0316 54.7225 40.507 49.7624 40.8283L33.2974 41.8946C28.3372 42.2158 27.9287 44.2612 32.385 46.4631L204.519 131.516Z" fill="#B8403F"/>
<path d="M205.246 128.964C209.702 131.166 217.335 132.69 222.296 132.369L238.262 131.335C243.222 131.014 243.631 128.968 239.175 126.766L67.041 41.7135C62.5847 39.5116 54.9512 37.987 49.991 38.3083L34.0245 39.3424C29.0643 39.6636 28.6558 41.709 33.112 43.9109L205.246 128.964Z" fill="#D03F3E"/>
<rect width="34" height="202.936" rx="9" transform="matrix(0.997909 -0.0646292 -0.896529 -0.442984 255.583 130.213)" fill="#F6AB58"/>
<rect width="34" height="195.442" rx="9" transform="matrix(0.997909 -0.0646292 -0.896529 -0.442984 297.852 127.476)" fill="#E6D03F"/>
<rect width="34" height="187.937" rx="9" transform="matrix(0.997909 -0.0646292 -0.896529 -0.442984 340.12 124.738)" fill="#6FBD35"/>
<rect width="34" height="180.454" rx="9" transform="matrix(0.997909 -0.0646292 -0.896529 -0.442984 382.389 122.001)" fill="#33B7C6"/>
<rect width="34" height="172.97" rx="9" transform="matrix(0.997909 -0.0646292 -0.896529 -0.442984 424.657 119.263)" fill="#277ACA"/>
<rect width="34" height="165.486" rx="9" transform="matrix(0.997909 -0.0646292 -0.896529 -0.442984 466.926 116.526)" fill="#923DCA"/>
<rect width="34" height="157.841" rx="9" transform="matrix(0.997909 -0.0646292 -0.896529 -0.442984 509.195 113.788)" fill="#E54895"/>
<rect width="34" height="150.35" rx="9" transform="matrix(0.997909 -0.0646292 -0.896529 -0.442984 551.463 111.051)" fill="#F75C5A"/>
<rect width="34" height="142.859" rx="9" transform="matrix(0.997909 -0.0646292 -0.896529 -0.442984 593.732 108.313)" fill="#F8AD5A"/>
<rect width="34" height="135.368" rx="9" transform="matrix(0.997909 -0.0646292 -0.896529 -0.442984 636 105.576)" fill="#E6D03F"/>
<rect width="34" height="127.877" rx="9" transform="matrix(0.997909 -0.0646292 -0.896529 -0.442984 678.269 102.838)" fill="#6FBD35"/>
<rect width="34" height="120.386" rx="9" transform="matrix(0.997909 -0.0646292 -0.896529 -0.442984 720.538 100.101)" fill="#33B7C6"/>
<rect width="34" height="112.725" rx="9" transform="matrix(0.997909 -0.0646292 -0.896529 -0.442984 762.806 97.363)" fill="#277ACA"/>
<rect width="34" height="105" rx="9" transform="matrix(0.997909 -0.0646292 -0.896529 -0.442984 805.075 94.6256)" fill="#923DCA"/>
<circle cx="5.42822" cy="5.42822" r="5.42822" transform="matrix(0.997909 -0.0646292 0.896529 0.442984 207.359 123.315)" fill="#B9B3B3"/>
<circle cx="4.06104" cy="4.06104" r="4.06104" transform="matrix(0.997909 -0.0646292 0.896529 0.442984 209.949 123.833)" fill="white"/>
<circle cx="4.06104" cy="4.06104" r="4.06104" transform="matrix(0.997909 -0.0646292 0.896529 0.442984 209.949 123.833)" fill="white"/>
<circle cx="4.06104" cy="4.06104" r="4.06104" transform="matrix(0.997909 -0.0646292 0.896529 0.442984 209.949 123.833)" fill="white"/>
<circle cx="5.42822" cy="5.42822" r="5.42822" transform="matrix(0.997909 -0.0646292 0.896529 0.442984 249.638 120.577)" fill="#B9B3B3"/>
<circle cx="4.06104" cy="4.06104" r="4.06104" transform="matrix(0.997909 -0.0646292 0.896529 0.442984 252.228 121.094)" fill="white"/>
<circle cx="4.06104" cy="4.06104" r="4.06104" transform="matrix(0.997909 -0.0646292 0.896529 0.442984 252.228 121.094)" fill="white"/>
<circle cx="4.06104" cy="4.06104" r="4.06104" transform="matrix(0.997909 -0.0646292 0.896529 0.442984 252.228 121.094)" fill="white"/>
<circle cx="5.42822" cy="5.42822" r="5.42822" transform="matrix(0.997909 -0.0646292 0.896529 0.442984 291.917 117.839)" fill="#B9B3B3"/>
<circle cx="4.06104" cy="4.06104" r="4.06104" transform="matrix(0.997909 -0.0646292 0.896529 0.442984 294.506 118.356)" fill="white"/>
<circle cx="4.06104" cy="4.06104" r="4.06104" transform="matrix(0.997909 -0.0646292 0.896529 0.442984 294.506 118.356)" fill="white"/>
<circle cx="4.06104" cy="4.06104" r="4.06104" transform="matrix(0.997909 -0.0646292 0.896529 0.442984 294.506 118.356)" fill="white"/>
<circle cx="5.42822" cy="5.42822" r="5.42822" transform="matrix(0.997909 -0.0646292 0.896529 0.442984 334.195 115.101)" fill="#B9B3B3"/>
<circle cx="4.06104" cy="4.06104" r="4.06104" transform="matrix(0.997909 -0.0646292 0.896529 0.442984 336.785 115.618)" fill="white"/>
<circle cx="4.06104" cy="4.06104" r="4.06104" transform="matrix(0.997909 -0.0646292 0.896529 0.442984 336.785 115.618)" fill="white"/>
<circle cx="4.06104" cy="4.06104" r="4.06104" transform="matrix(0.997909 -0.0646292 0.896529 0.442984 336.785 115.618)" fill="white"/>
<circle cx="5.42822" cy="5.42822" r="5.42822" transform="matrix(0.997909 -0.0646292 0.896529 0.442984 376.474 112.363)" fill="#B9B3B3"/>
<circle cx="4.06104" cy="4.06104" r="4.06104" transform="matrix(0.997909 -0.0646292 0.896529 0.442984 379.064 112.88)" fill="white"/>
<circle cx="4.06104" cy="4.06104" r="4.06104" transform="matrix(0.997909 -0.0646292 0.896529 0.442984 379.064 112.88)" fill="white"/>
<circle cx="4.06104" cy="4.06104" r="4.06104" transform="matrix(0.997909 -0.0646292 0.896529 0.442984 379.064 112.88)" fill="white"/>
<circle cx="5.42822" cy="5.42822" r="5.42822" transform="matrix(0.997909 -0.0646292 0.896529 0.442984 418.753 109.625)" fill="#B9B3B3"/>
<circle cx="4.06104" cy="4.06104" r="4.06104" transform="matrix(0.997909 -0.0646292 0.896529 0.442984 421.343 110.142)" fill="white"/>
<circle cx="4.06104" cy="4.06104" r="4.06104" transform="matrix(0.997909 -0.0646292 0.896529 0.442984 421.343 110.142)" fill="white"/>
<circle cx="4.06104" cy="4.06104" r="4.06104" transform="matrix(0.997909 -0.0646292 0.896529 0.442984 421.343 110.142)" fill="white"/>
<circle cx="5.42822" cy="5.42822" r="5.42822" transform="matrix(0.997909 -0.0646292 0.896529 0.442984 461.032 106.886)" fill="#B9B3B3"/>
<circle cx="4.06104" cy="4.06104" r="4.06104" transform="matrix(0.997909 -0.0646292 0.896529 0.442984 463.622 107.404)" fill="white"/>
<circle cx="4.06104" cy="4.06104" r="4.06104" transform="matrix(0.997909 -0.0646292 0.896529 0.442984 463.622 107.404)" fill="white"/>
<circle cx="4.06104" cy="4.06104" r="4.06104" transform="matrix(0.997909 -0.0646292 0.896529 0.442984 463.622 107.404)" fill="white"/>
<circle cx="5.42822" cy="5.42822" r="5.42822" transform="matrix(0.997909 -0.0646292 0.896529 0.442984 503.311 104.148)" fill="#B9B3B3"/>
<circle cx="4.06104" cy="4.06104" r="4.06104" transform="matrix(0.997909 -0.0646292 0.896529 0.442984 505.9 104.666)" fill="white"/>
<circle cx="4.06104" cy="4.06104" r="4.06104" transform="matrix(0.997909 -0.0646292 0.896529 0.442984 505.9 104.666)" fill="white"/>
<circle cx="4.06104" cy="4.06104" r="4.06104" transform="matrix(0.997909 -0.0646292 0.896529 0.442984 505.9 104.666)" fill="white"/>
<circle cx="5.42822" cy="5.42822" r="5.42822" transform="matrix(0.997909 -0.0646292 0.896529 0.442984 545.589 101.41)" fill="#B9B3B3"/>
<circle cx="4.06104" cy="4.06104" r="4.06104" transform="matrix(0.997909 -0.0646292 0.896529 0.442984 548.179 101.927)" fill="white"/>
<circle cx="4.06104" cy="4.06104" r="4.06104" transform="matrix(0.997909 -0.0646292 0.896529 0.442984 548.179 101.927)" fill="white"/>
<circle cx="4.06104" cy="4.06104" r="4.06104" transform="matrix(0.997909 -0.0646292 0.896529 0.442984 548.179 101.927)" fill="white"/>
<circle cx="5.42822" cy="5.42822" r="5.42822" transform="matrix(0.997909 -0.0646292 0.896529 0.442984 587.868 98.6719)" fill="#B9B3B3"/>
<circle cx="4.06104" cy="4.06104" r="4.06104" transform="matrix(0.997909 -0.0646292 0.896529 0.442984 590.458 99.1892)" fill="white"/>
<circle cx="4.06104" cy="4.06104" r="4.06104" transform="matrix(0.997909 -0.0646292 0.896529 0.442984 590.458 99.1892)" fill="white"/>
<circle cx="4.06104" cy="4.06104" r="4.06104" transform="matrix(0.997909 -0.0646292 0.896529 0.442984 590.458 99.1892)" fill="white"/>
<circle cx="5.42822" cy="5.42822" r="5.42822" transform="matrix(0.997909 -0.0646292 0.896529 0.442984 630.147 95.9337)" fill="#B9B3B3"/>
<circle cx="4.06104" cy="4.06104" r="4.06104" transform="matrix(0.997909 -0.0646292 0.896529 0.442984 632.737 96.451)" fill="white"/>
<circle cx="4.06104" cy="4.06104" r="4.06104" transform="matrix(0.997909 -0.0646292 0.896529 0.442984 632.737 96.451)" fill="white"/>
<circle cx="4.06104" cy="4.06104" r="4.06104" transform="matrix(0.997909 -0.0646292 0.896529 0.442984 632.737 96.451)" fill="white"/>
<circle cx="5.42822" cy="5.42822" r="5.42822" transform="matrix(0.997909 -0.0646292 0.896529 0.442984 672.426 93.1956)" fill="#B9B3B3"/>
<circle cx="4.06104" cy="4.06104" r="4.06104" transform="matrix(0.997909 -0.0646292 0.896529 0.442984 675.016 93.7129)" fill="white"/>
<circle cx="4.06104" cy="4.06104" r="4.06104" transform="matrix(0.997909 -0.0646292 0.896529 0.442984 675.016 93.7129)" fill="white"/>
<circle cx="4.06104" cy="4.06104" r="4.06104" transform="matrix(0.997909 -0.0646292 0.896529 0.442984 675.016 93.7129)" fill="white"/>
<circle cx="5.42822" cy="5.42822" r="5.42822" transform="matrix(0.997909 -0.0646292 0.896529 0.442984 714.705 90.4574)" fill="#B9B3B3"/>
<circle cx="4.06104" cy="4.06104" r="4.06104" transform="matrix(0.997909 -0.0646292 0.896529 0.442984 717.294 90.9747)" fill="white"/>
<circle cx="4.06104" cy="4.06104" r="4.06104" transform="matrix(0.997909 -0.0646292 0.896529 0.442984 717.294 90.9747)" fill="white"/>
<circle cx="4.06104" cy="4.06104" r="4.06104" transform="matrix(0.997909 -0.0646292 0.896529 0.442984 717.294 90.9747)" fill="white"/>
<circle cx="5.42822" cy="5.42822" r="5.42822" transform="matrix(0.997909 -0.0646292 0.896529 0.442984 756.983 87.7192)" fill="#B9B3B3"/>
<circle cx="4.06104" cy="4.06104" r="4.06104" transform="matrix(0.997909 -0.0646292 0.896529 0.442984 759.573 88.2366)" fill="white"/>
<circle cx="4.06104" cy="4.06104" r="4.06104" transform="matrix(0.997909 -0.0646292 0.896529 0.442984 759.573 88.2366)" fill="white"/>
<circle cx="4.06104" cy="4.06104" r="4.06104" transform="matrix(0.997909 -0.0646292 0.896529 0.442984 759.573 88.2366)" fill="white"/>
<circle cx="5.42822" cy="5.42822" r="5.42822" transform="matrix(0.997909 -0.0646292 0.896529 0.442984 799.262 84.9811)" fill="#B9B3B3"/>
<circle cx="4.06104" cy="4.06104" r="4.06104" transform="matrix(0.997909 -0.0646292 0.896529 0.442984 801.852 85.4984)" fill="white"/>
<circle cx="4.06104" cy="4.06104" r="4.06104" transform="matrix(0.997909 -0.0646292 0.896529 0.442984 801.852 85.4984)" fill="white"/>
<circle cx="4.06104" cy="4.06104" r="4.06104" transform="matrix(0.997909 -0.0646292 0.896529 0.442984 801.852 85.4984)" fill="white"/>
<circle cx="5.42822" cy="5.42822" r="5.42822" transform="matrix(0.997909 -0.0646292 0.896529 0.442984 61.9565 51.4705)" fill="#B9B3B3"/>
<circle cx="4.06104" cy="4.06104" r="4.06104" transform="matrix(0.997909 -0.0646292 0.896529 0.442984 64.5464 51.9878)" fill="white"/>
<circle cx="4.06104" cy="4.06104" r="4.06104" transform="matrix(0.997909 -0.0646292 0.896529 0.442984 64.5464 51.9878)" fill="white"/>
<circle cx="4.06104" cy="4.06104" r="4.06104" transform="matrix(0.997909 -0.0646292 0.896529 0.442984 64.5464 51.9878)" fill="white"/>
<circle cx="5.42822" cy="5.42822" r="5.42822" transform="matrix(0.997909 -0.0646292 0.896529 0.442984 110.185 51.7019)" fill="#B9B3B3"/>
<circle cx="4.06104" cy="4.06104" r="4.06104" transform="matrix(0.997909 -0.0646292 0.896529 0.442984 112.774 52.2192)" fill="white"/>
<circle cx="4.06104" cy="4.06104" r="4.06104" transform="matrix(0.997909 -0.0646292 0.896529 0.442984 112.774 52.2192)" fill="white"/>
<circle cx="4.06104" cy="4.06104" r="4.06104" transform="matrix(0.997909 -0.0646292 0.896529 0.442984 112.774 52.2192)" fill="white"/>
<circle cx="5.42822" cy="5.42822" r="5.42822" transform="matrix(0.997909 -0.0646292 0.896529 0.442984 158.146 52.0366)" fill="#B9B3B3"/>
<circle cx="4.06104" cy="4.06104" r="4.06104" transform="matrix(0.997909 -0.0646292 0.896529 0.442984 160.735 52.554)" fill="white"/>
<circle cx="4.06104" cy="4.06104" r="4.06104" transform="matrix(0.997909 -0.0646292 0.896529 0.442984 160.735 52.554)" fill="white"/>
<circle cx="4.06104" cy="4.06104" r="4.06104" transform="matrix(0.997909 -0.0646292 0.896529 0.442984 160.735 52.554)" fill="white"/>
<circle cx="5.42822" cy="5.42822" r="5.42822" transform="matrix(0.997909 -0.0646292 0.896529 0.442984 205.688 52.2456)" fill="#B9B3B3"/>
<circle cx="4.06104" cy="4.06104" r="4.06104" transform="matrix(0.997909 -0.0646292 0.896529 0.442984 208.278 52.7629)" fill="white"/>
<circle cx="4.06104" cy="4.06104" r="4.06104" transform="matrix(0.997909 -0.0646292 0.896529 0.442984 208.278 52.7629)" fill="white"/>
<circle cx="4.06104" cy="4.06104" r="4.06104" transform="matrix(0.997909 -0.0646292 0.896529 0.442984 208.278 52.7629)" fill="white"/>
<circle cx="5.42822" cy="5.42822" r="5.42822" transform="matrix(0.997909 -0.0646292 0.896529 0.442984 255.763 52.5765)" fill="#B9B3B3"/>
<circle cx="4.06104" cy="4.06104" r="4.06104" transform="matrix(0.997909 -0.0646292 0.896529 0.442984 258.353 53.0939)" fill="white"/>
<circle cx="4.06104" cy="4.06104" r="4.06104" transform="matrix(0.997909 -0.0646292 0.896529 0.442984 258.353 53.0939)" fill="white"/>
<circle cx="4.06104" cy="4.06104" r="4.06104" transform="matrix(0.997909 -0.0646292 0.896529 0.442984 258.353 53.0939)" fill="white"/>
<circle cx="5.42822" cy="5.42822" r="5.42822" transform="matrix(0.997909 -0.0646292 0.896529 0.442984 303.519 52.7861)" fill="#B9B3B3"/>
<circle cx="4.06104" cy="4.06104" r="4.06104" transform="matrix(0.997909 -0.0646292 0.896529 0.442984 306.108 53.3035)" fill="white"/>
<circle cx="4.06104" cy="4.06104" r="4.06104" transform="matrix(0.997909 -0.0646292 0.896529 0.442984 306.108 53.3035)" fill="white"/>
<circle cx="4.06104" cy="4.06104" r="4.06104" transform="matrix(0.997909 -0.0646292 0.896529 0.442984 306.108 53.3035)" fill="white"/>
<circle cx="5.42822" cy="5.42822" r="5.42822" transform="matrix(0.997909 -0.0646292 0.896529 0.442984 351.918 53.1616)" fill="#B9B3B3"/>
<circle cx="4.06104" cy="4.06104" r="4.06104" transform="matrix(0.997909 -0.0646292 0.896529 0.442984 354.508 53.679)" fill="white"/>
<circle cx="4.06104" cy="4.06104" r="4.06104" transform="matrix(0.997909 -0.0646292 0.896529 0.442984 354.508 53.679)" fill="white"/>
<circle cx="4.06104" cy="4.06104" r="4.06104" transform="matrix(0.997909 -0.0646292 0.896529 0.442984 354.508 53.679)" fill="white"/>
<circle cx="5.42822" cy="5.42822" r="5.42822" transform="matrix(0.997909 -0.0646292 0.896529 0.442984 400.085 53.3663)" fill="#B9B3B3"/>
<circle cx="4.06104" cy="4.06104" r="4.06104" transform="matrix(0.997909 -0.0646292 0.896529 0.442984 402.675 53.8837)" fill="white"/>
<circle cx="4.06104" cy="4.06104" r="4.06104" transform="matrix(0.997909 -0.0646292 0.896529 0.442984 402.675 53.8837)" fill="white"/>
<circle cx="4.06104" cy="4.06104" r="4.06104" transform="matrix(0.997909 -0.0646292 0.896529 0.442984 402.675 53.8837)" fill="white"/>
<circle cx="5.42822" cy="5.42822" r="5.42822" transform="matrix(0.997909 -0.0646292 0.896529 0.442984 449.157 53.8005)" fill="#B9B3B3"/>
<circle cx="4.06104" cy="4.06104" r="4.06104" transform="matrix(0.997909 -0.0646292 0.896529 0.442984 451.747 54.3179)" fill="white"/>
<circle cx="4.06104" cy="4.06104" r="4.06104" transform="matrix(0.997909 -0.0646292 0.896529 0.442984 451.747 54.3179)" fill="white"/>
<circle cx="4.06104" cy="4.06104" r="4.06104" transform="matrix(0.997909 -0.0646292 0.896529 0.442984 451.747 54.3179)" fill="white"/>
<circle cx="5.42822" cy="5.42822" r="5.42822" transform="matrix(0.997909 -0.0646292 0.896529 0.442984 497.753 53.9994)" fill="#B9B3B3"/>
<circle cx="4.06104" cy="4.06104" r="4.06104" transform="matrix(0.997909 -0.0646292 0.896529 0.442984 500.343 54.5167)" fill="white"/>
<circle cx="4.06104" cy="4.06104" r="4.06104" transform="matrix(0.997909 -0.0646292 0.896529 0.442984 500.343 54.5167)" fill="white"/>
<circle cx="4.06104" cy="4.06104" r="4.06104" transform="matrix(0.997909 -0.0646292 0.896529 0.442984 500.343 54.5167)" fill="white"/>
<circle cx="5.42822" cy="5.42822" r="5.42822" transform="matrix(0.997909 -0.0646292 0.896529 0.442984 546.106 54.3961)" fill="#B9B3B3"/>
<circle cx="4.06104" cy="4.06104" r="4.06104" transform="matrix(0.997909 -0.0646292 0.896529 0.442984 548.696 54.9135)" fill="white"/>
<circle cx="4.06104" cy="4.06104" r="4.06104" transform="matrix(0.997909 -0.0646292 0.896529 0.442984 548.696 54.9135)" fill="white"/>
<circle cx="4.06104" cy="4.06104" r="4.06104" transform="matrix(0.997909 -0.0646292 0.896529 0.442984 548.696 54.9135)" fill="white"/>
<circle cx="5.42822" cy="5.42822" r="5.42822" transform="matrix(0.997909 -0.0646292 0.896529 0.442984 594.398 54.7429)" fill="#B9B3B3"/>
<circle cx="4.06104" cy="4.06104" r="4.06104" transform="matrix(0.997909 -0.0646292 0.896529 0.442984 596.988 55.2603)" fill="white"/>
<circle cx="4.06104" cy="4.06104" r="4.06104" transform="matrix(0.997909 -0.0646292 0.896529 0.442984 596.988 55.2603)" fill="white"/>
<circle cx="4.06104" cy="4.06104" r="4.06104" transform="matrix(0.997909 -0.0646292 0.896529 0.442984 596.988 55.2603)" fill="white"/>
<circle cx="5.42822" cy="5.42822" r="5.42822" transform="matrix(0.997909 -0.0646292 0.896529 0.442984 642.544 54.9967)" fill="#B9B3B3"/>
<circle cx="4.06104" cy="4.06104" r="4.06104" transform="matrix(0.997909 -0.0646292 0.896529 0.442984 645.134 55.514)" fill="white"/>
<circle cx="4.06104" cy="4.06104" r="4.06104" transform="matrix(0.997909 -0.0646292 0.896529 0.442984 645.134 55.514)" fill="white"/>
<circle cx="4.06104" cy="4.06104" r="4.06104" transform="matrix(0.997909 -0.0646292 0.896529 0.442984 645.134 55.514)" fill="white"/>
<circle cx="5.42822" cy="5.42822" r="5.42822" transform="matrix(0.997909 -0.0646292 0.896529 0.442984 691.074 55.3022)" fill="#B9B3B3"/>
<circle cx="4.06104" cy="4.06104" r="4.06104" transform="matrix(0.997909 -0.0646292 0.896529 0.442984 693.664 55.8196)" fill="white"/>
<circle cx="4.06104" cy="4.06104" r="4.06104" transform="matrix(0.997909 -0.0646292 0.896529 0.442984 693.664 55.8196)" fill="white"/>
<circle cx="4.06104" cy="4.06104" r="4.06104" transform="matrix(0.997909 -0.0646292 0.896529 0.442984 693.664 55.8196)" fill="white"/>
<circle cx="5.42822" cy="5.42822" r="5.42822" transform="matrix(0.997909 -0.0646292 0.896529 0.442984 739.476 55.5446)" fill="#B9B3B3"/>
<circle cx="4.06104" cy="4.06104" r="4.06104" transform="matrix(0.997909 -0.0646292 0.896529 0.442984 742.065 56.0619)" fill="white"/>
<circle cx="4.06104" cy="4.06104" r="4.06104" transform="matrix(0.997909 -0.0646292 0.896529 0.442984 742.065 56.0619)" fill="white"/>
<circle cx="4.06104" cy="4.06104" r="4.06104" transform="matrix(0.997909 -0.0646292 0.896529 0.442984 742.065 56.0619)" fill="white"/>
</g>
<defs>
<filter id="filter0_d_861_479" x="16.7168" y="1.61646" width="828.966" height="160.886" filterUnits="userSpaceOnUse" color-interpolation-filters="sRGB">
<feFlood flood-opacity="0" result="BackgroundImageFix"/>
<feColorMatrix in="SourceAlpha" type="matrix" values="0 0 0 0 0 0 0 0 0 0 0 0 0 0 0 0 0 0 127 0" result="hardAlpha"/>
<feOffset dy="21"/>
<feGaussianBlur stdDeviation="3"/>
<feComposite in2="hardAlpha" operator="out"/>
<feColorMatrix type="matrix" values="0 0 0 0 0 0 0 0 0 0 0 0 0 0 0 0 0 0 0.25 0"/>
<feBlend mode="normal" in2="BackgroundImageFix" result="effect1_dropShadow_861_479"/>
<feBlend mode="normal" in="SourceGraphic" in2="effect1_dropShadow_861_479" result="shape"/>
</filter>
</defs>
</svg>
